<svg width="250" height="216" viewBox="0 0 250 216" fill="none" xmlns="http://www.w3.org/2000/svg">
<path d="M41.1441 15.1711C41.1081 15.1711 41.5641 12.9332 41.6061 12.7712C42.1221 11.1692 44.066 8.38537 45.9439 8.39137C46.2567 8.40019 46.5642 8.47487 46.8462 8.61055C47.1282 8.74622 47.3784 8.93984 47.5805 9.17876C47.7826 9.41768 47.9321 9.69654 48.0192 9.99713C48.1062 10.2977 48.1289 10.6133 48.0858 10.9233C47.9478 12.2432 46.7599 13.3711 45.6859 14.0191C44.426 14.8051 41.1441 15.1711 41.1441 15.1711Z" fill="#BB002D"/>
<path d="M37.5025 0.123706C39.3024 0.759678 40.1543 4.03553 40.0944 5.71545C40.0944 5.85945 39.7584 8.11535 39.7284 8.11535H39.6924C39.8304 8.63132 39.9804 9.1893 40.1303 9.80127C40.3943 10.9292 40.6823 12.2012 40.9043 13.6171C41.1617 15.1339 41.33 16.6644 41.4083 18.2009C41.504 19.9226 41.4458 21.6493 41.2343 23.3607C41.2315 23.3806 41.2315 23.4008 41.2343 23.4207C41.4683 22.9227 42.1643 21.5427 42.2243 21.4467C43.1482 20.0428 45.7521 17.8469 47.57 18.3689C47.8685 18.4599 48.1444 18.6129 48.3798 18.8177C48.6152 19.0226 48.8048 19.2748 48.9361 19.5579C49.0675 19.8409 49.1376 20.1485 49.1421 20.4606C49.1465 20.7726 49.0852 21.082 48.962 21.3688C48.482 22.6047 47.042 23.3787 45.8361 23.7206C44.4742 24.1106 41.4383 23.6546 41.1983 23.6126C40.9417 25.3496 40.5689 27.0674 40.0824 28.7544C39.8024 29.7384 39.4984 30.7203 39.1704 31.7003C39.3804 31.2743 39.5784 30.8963 39.6084 30.8483C40.5323 29.4384 43.1422 27.2485 44.9541 27.7705C45.2526 27.8615 45.5286 28.0144 45.7639 28.2193C45.9993 28.4242 46.1889 28.6764 46.3202 28.9595C46.4516 29.2425 46.5218 29.5501 46.5262 29.8621C46.5307 30.1742 46.4693 30.4836 46.3461 30.7703C45.8661 32.0063 44.4262 32.7802 43.2202 33.1222C42.0143 33.4642 39.3984 33.1222 38.7144 33.0322L38.3364 34.1602C37.7365 35.9601 37.0825 37.76 36.5365 39.5239C36.3385 40.1239 36.1645 40.7719 35.9905 41.3958C36.1825 41.0179 36.3445 40.6999 36.3745 40.6519C37.2925 39.2479 39.9024 37.052 41.7143 37.574C42.0122 37.666 42.2876 37.8194 42.5226 38.0244C42.7576 38.2293 42.9471 38.4812 43.0788 38.7638C43.2105 39.0464 43.2815 39.3535 43.2873 39.6653C43.293 39.9771 43.2334 40.2866 43.1122 40.5739C42.6322 41.8158 41.1863 42.5838 39.9804 42.9318C38.7744 43.2798 36.4165 42.9738 35.6006 42.8598C35.4386 43.5017 35.2826 44.1437 35.1566 44.7737C35.0786 45.2117 34.9766 45.6196 34.9226 46.0576L34.7426 47.3476C34.6586 48.1695 34.5626 49.0155 34.5026 49.8195C34.4546 50.3774 34.4186 50.9114 34.3826 51.4514C34.5746 50.8514 34.9826 49.6095 34.9826 49.5135C35.647 48.1935 36.6385 47.0657 37.8625 46.2376C37.9277 46.0847 38.0102 45.9398 38.1084 45.8056C38.2783 45.5435 38.5016 45.3202 38.7636 45.1502C39.0257 44.9803 39.3207 44.8676 39.6293 44.8194C39.9379 44.7713 40.2533 44.7889 40.5546 44.8709C40.856 44.953 41.1367 45.0977 41.3783 45.2957C42.8062 46.5256 42.4462 49.8975 41.7923 51.4454C41.7563 51.5354 41.2223 52.4773 40.8803 53.0713C41.1383 52.7533 41.3783 52.4413 41.6483 52.1234C42.1703 51.4814 42.7102 50.8574 43.2862 50.1854L44.1682 49.2315C44.4562 48.9075 44.8041 48.6315 45.1221 48.2775C45.8721 47.5516 46.6701 46.8496 47.492 46.1596C46.934 45.7036 44.9661 44.0477 44.4022 42.9198C43.8382 41.7918 43.4362 40.2139 44.0242 39.0199C44.1535 38.7352 44.3412 38.4808 44.5751 38.2733C44.8091 38.0658 45.084 37.9097 45.3821 37.8152C45.6802 37.7208 45.9948 37.69 46.3056 37.7249C46.6164 37.7599 46.9163 37.8597 47.186 38.018C48.776 39.02 48.938 42.4098 48.524 44.0177C48.524 44.1197 48.068 45.2537 47.822 45.8716C48.32 45.4637 48.812 45.0557 49.3279 44.6717C50.8159 43.5257 52.3578 42.4038 53.8877 41.2818L55.2857 40.2499C55.0877 40.0879 52.7118 38.168 52.0758 36.902C51.5178 35.7801 51.1099 34.1962 51.6978 33.0082C51.8264 32.7228 52.0137 32.4678 52.2476 32.2597C52.4814 32.0516 52.7565 31.8952 53.0548 31.8007C53.3532 31.7061 53.6682 31.6756 53.9792 31.711C54.2902 31.7464 54.5902 31.847 54.8597 32.0063C56.4556 33.0022 56.6116 36.3921 56.1976 38.006C56.1676 38.126 55.5497 39.7579 55.3757 40.1659C56.3956 39.4039 57.4096 38.636 58.3755 37.832C59.6898 36.7606 60.9324 35.6042 62.0954 34.3702C62.0054 34.2922 59.5155 32.3003 58.8675 31.0103C58.3035 29.8884 57.9015 28.2984 58.4895 27.1105C58.6182 26.8259 58.8053 26.5717 59.0387 26.3642C59.2721 26.1567 59.5465 26.0006 59.8441 25.9061C60.1418 25.8116 60.456 25.7808 60.7663 25.8157C61.0766 25.8505 61.3761 25.9503 61.6454 26.1085C63.2413 27.1105 63.4033 30.5003 62.9893 32.1083C62.9893 32.2163 62.4913 33.4582 62.2574 34.0462L62.3474 34.1062C63.4839 32.8307 64.5059 31.4574 65.4012 30.0024C65.9052 29.2044 66.3372 28.4184 66.7451 27.6445C66.2412 27.3205 63.9673 25.8145 63.2533 24.7166C62.5393 23.6186 61.9994 22.1307 62.4493 20.8828C62.5458 20.5853 62.7038 20.3115 62.9131 20.0791C63.1225 19.8468 63.3784 19.6612 63.6643 19.5344C63.9501 19.4076 64.2595 19.3425 64.5722 19.3432C64.8849 19.344 65.194 19.4106 65.4792 19.5388C67.1771 20.3608 67.7051 23.7386 67.4711 25.3766C67.4711 25.4666 67.2311 26.3725 67.0571 27.0265C67.2311 26.6725 67.4231 26.3125 67.5851 25.9705C68.1851 24.6926 68.6951 23.4807 69.115 22.3707C69.355 21.7707 69.553 21.2008 69.715 20.6728C69.385 20.0728 68.1011 17.7689 67.9751 16.473C67.8491 15.177 68.0531 13.6051 69.0311 12.7051C69.2537 12.486 69.52 12.3162 69.8126 12.2067C70.1053 12.0973 70.4176 12.0507 70.7295 12.0699C71.0413 12.0892 71.3456 12.1738 71.6225 12.3184C71.8995 12.463 72.1429 12.6643 72.3369 12.9091C73.4648 14.4151 72.3909 17.6369 71.4189 19.0049C71.3349 19.1248 69.805 20.8048 69.787 20.8048V20.7688C69.619 21.2788 69.439 21.8247 69.223 22.4127C68.8271 23.5047 68.3651 24.7286 67.7711 26.0125C67.1432 27.4174 66.4361 28.7856 65.6532 30.1104C64.7795 31.5963 63.7756 33.0018 62.6533 34.3102L62.6113 34.3582C63.0793 34.0702 64.4113 33.3022 64.5252 33.2542C66.0732 32.5942 69.445 32.2223 70.681 33.6382C70.8799 33.8792 71.0259 34.1593 71.1094 34.4604C71.1929 34.7615 71.2121 35.0768 71.1656 35.3859C71.1192 35.6949 71.0083 35.9906 70.84 36.2539C70.6717 36.5172 70.4499 36.7421 70.189 36.914C69.103 37.682 67.4771 37.514 66.2772 37.154C64.9272 36.7221 62.6773 34.6701 62.4733 34.5022C61.3015 35.8095 60.0427 37.0363 58.7055 38.174C57.9315 38.84 57.1276 39.4879 56.3056 40.1299C56.7196 39.8899 57.0916 39.6799 57.1456 39.6559C58.6875 38.9959 62.0594 38.624 63.2953 40.0399C63.4951 40.2805 63.6419 40.5606 63.7259 40.8618C63.81 41.1631 63.8294 41.4787 63.7829 41.788C63.7365 42.0973 63.6252 42.3933 63.4564 42.6566C63.2876 42.9198 63.065 43.1445 62.8033 43.3158C61.7234 44.0837 60.0915 43.9157 58.8975 43.5557C57.7036 43.1958 55.7056 41.4558 55.1897 40.9939C54.8717 41.2338 54.5897 41.4798 54.2477 41.7258C52.7418 42.8778 51.2478 44.0237 49.7779 45.1997C49.2679 45.6077 48.782 46.0336 48.29 46.4596L49.0219 46.0516C50.5639 45.3917 53.9357 45.0137 55.1717 46.4296C55.3707 46.6711 55.5168 46.9517 55.6003 47.2533C55.6839 47.5549 55.7031 47.8706 55.6567 48.1801C55.6103 48.4896 55.4993 48.7859 55.331 49.0497C55.1627 49.3135 54.9408 49.539 54.6797 49.7115C53.5997 50.4794 51.9678 50.3114 50.7739 49.9455C49.5799 49.5795 47.774 48.0135 47.174 47.4676C46.6881 47.9175 46.1961 48.3675 45.7461 48.8235C45.4401 49.1415 45.1461 49.4235 44.8461 49.7655L43.9822 50.7374C43.4602 51.3794 42.9142 52.0334 42.4162 52.6693C42.0683 53.1073 41.7443 53.5333 41.4203 53.9653C41.9183 53.5453 42.9262 52.7653 43.0162 52.6933C44.4382 51.8054 47.72 50.8934 49.1539 52.1414C49.3863 52.3501 49.5722 52.6054 49.6994 52.8907C49.8266 53.176 49.8924 53.4849 49.8924 53.7973C49.8924 54.1097 49.8266 54.4185 49.6994 54.7038C49.5722 54.9891 49.3863 55.2445 49.1539 55.4532C48.194 56.3772 46.5621 56.4732 45.3261 56.2812C43.9582 56.0652 41.4863 54.4813 41.1803 54.2533C40.6403 54.9672 40.1244 55.6572 39.6444 56.3232C37.9824 58.6211 36.6865 60.601 35.7985 61.9929L35.7085 62.1369L34.5566 61.5789L34.7366 61.3029C35.6666 59.911 37.0225 57.9431 38.7504 55.6632C39.2964 54.9372 39.8904 54.1753 40.5083 53.4013C39.8657 52.6991 39.2647 51.9599 38.7084 51.1874C37.3825 51.7094 34.6346 51.7274 34.2746 51.7274C34.2206 52.6153 34.1726 53.4853 34.1366 54.3013C34.0166 57.1331 34.0286 59.497 34.0586 61.1529V61.3449L32.7927 60.745C32.7927 59.101 32.8587 56.8811 33.0267 54.2533C33.0807 53.3533 33.1587 52.3873 33.2487 51.3974C32.8947 51.3074 30.0328 50.5754 28.9529 49.7115C27.9749 48.9255 26.9429 47.6596 26.9789 46.3276C26.9765 46.0151 27.04 45.7057 27.1651 45.4193C27.2902 45.133 27.4742 44.8762 27.7051 44.6657C27.936 44.4551 28.2086 44.2956 28.5053 44.1974C28.8019 44.0992 29.1159 44.0645 29.4268 44.0957C31.2927 44.3357 32.8587 47.3476 33.1647 48.9975C33.1647 49.0995 33.2607 50.1974 33.2967 50.8574C33.3387 50.4554 33.3687 50.0594 33.4167 49.6575C33.4946 48.8355 33.6026 48.0195 33.7166 47.1376C33.7826 46.7116 33.8546 46.2856 33.9206 45.8536C33.9866 45.4217 34.1006 44.9777 34.1906 44.5337C34.4186 43.5137 34.6946 42.4878 35.0006 41.4618C34.2806 41.3898 31.7307 41.0899 30.6388 40.4599C29.5468 39.8299 28.3349 38.738 28.1729 37.418C28.1227 37.1093 28.1382 36.7934 28.2183 36.4911C28.2984 36.1887 28.4413 35.9066 28.6378 35.6632C28.8342 35.4198 29.0797 35.2205 29.3583 35.0783C29.637 34.9362 29.9424 34.8543 30.2548 34.8381C32.1327 34.7961 34.1366 37.532 34.6886 39.1219C34.7246 39.2179 34.9946 40.3999 35.1326 41.0539C35.3186 40.4539 35.4986 39.8239 35.7325 39.2059C36.3325 37.406 37.0105 35.6481 37.6705 33.8662C37.8745 33.3202 38.0664 32.7742 38.2704 32.2283C38.0124 32.2283 34.9706 31.9103 33.7466 31.2083C32.6607 30.6083 31.4487 29.4864 31.2807 28.1664C31.2316 27.8578 31.2477 27.5423 31.3282 27.2404C31.4087 26.9384 31.5517 26.6567 31.7479 26.4135C31.9442 26.1703 32.1893 25.971 32.4675 25.8286C32.7456 25.6861 33.0506 25.6037 33.3627 25.5866C35.2466 25.5446 37.2505 28.2804 37.8025 29.8704C37.8445 29.9904 38.2284 31.6703 38.3064 32.1263C38.7384 30.9263 39.1644 29.7264 39.5064 28.5264C40.0138 26.9064 40.4146 25.255 40.7063 23.5826C40.5863 23.5826 37.4125 23.2827 36.1585 22.5627C35.0666 21.9627 33.8546 20.8408 33.6926 19.5208C33.6424 19.2124 33.6579 18.8968 33.7381 18.5948C33.8182 18.2928 33.9612 18.0111 34.1577 17.7681C34.3543 17.5251 34.5999 17.3264 34.8785 17.1849C35.1571 17.0434 35.4624 16.9623 35.7745 16.9469C37.6525 16.8989 39.6564 19.6348 40.2083 21.2248C40.2443 21.3267 40.5443 22.6227 40.6703 23.2467H40.7723C41.0201 21.5567 41.1165 19.848 41.0603 18.1409C41.0603 17.1989 40.9703 16.305 40.8803 15.435C40.2803 15.435 37.5565 15.435 36.3565 14.913C35.1566 14.3911 33.8786 13.4551 33.5666 12.1652C33.4834 11.863 33.465 11.5467 33.5124 11.2369C33.5599 10.927 33.6723 10.6308 33.8422 10.3674C34.0121 10.104 34.2358 9.87952 34.4984 9.70855C34.7611 9.53758 35.057 9.42402 35.3666 9.37529C37.2325 9.1173 39.5244 11.6252 40.2503 13.1371C40.2863 13.2211 40.5983 14.1031 40.8083 14.751C40.7663 14.3551 40.7243 13.9471 40.6703 13.5511C40.4843 12.1412 40.2203 10.8632 39.9804 9.72927C39.8364 9.0873 39.6984 8.52933 39.5604 7.97135C38.9604 7.67137 36.6085 6.43542 35.8045 5.43947C35.0006 4.44351 34.2806 2.99758 34.6046 1.71364C34.6763 1.41043 34.8109 1.12566 34.9996 0.877746C35.1883 0.62983 35.4269 0.424289 35.7001 0.274423C35.9732 0.124557 36.2748 0.0337041 36.5853 0.00774171C36.8957 -0.0182206 37.2082 0.0212864 37.5025 0.123706Z" fill="#BB002D"/>
<path d="M71.5089 29.0966C70.039 29.0366 67.0991 27.5306 67.0991 27.5306C67.0991 27.5306 68.677 25.8927 68.791 25.8027C70.105 24.7587 73.2608 23.5048 74.8268 24.5488C75.0827 24.7281 75.298 24.9594 75.4584 25.2277C75.6187 25.496 75.7207 25.795 75.7575 26.1054C75.7943 26.4158 75.7652 26.7304 75.672 27.0288C75.5788 27.3271 75.4237 27.6024 75.2168 27.8366C74.3768 28.8626 72.7629 29.1505 71.5089 29.0966Z" fill="#BB002D"/>
<g opacity="0.5">
<path d="M41.1441 15.1711C41.1081 15.1711 41.5641 12.9332 41.6061 12.7712C42.1221 11.1692 44.066 8.38537 45.9439 8.39137C46.2567 8.40019 46.5642 8.47487 46.8462 8.61055C47.1282 8.74622 47.3784 8.93984 47.5805 9.17876C47.7826 9.41768 47.9321 9.69654 48.0192 9.99713C48.1062 10.2977 48.1289 10.6133 48.0858 10.9233C47.9478 12.2432 46.7599 13.3711 45.6859 14.0191C44.426 14.8051 41.1441 15.1711 41.1441 15.1711Z" fill="white"/>
<path d="M37.5025 0.123706C39.3024 0.759678 40.1543 4.03553 40.0944 5.71545C40.0944 5.85945 39.7584 8.11535 39.7284 8.11535H39.6924C39.8304 8.63132 39.9804 9.1893 40.1303 9.80127C40.3943 10.9292 40.6823 12.2012 40.9043 13.6171C41.1617 15.1339 41.33 16.6644 41.4083 18.2009C41.504 19.9226 41.4458 21.6493 41.2343 23.3607C41.2315 23.3806 41.2315 23.4008 41.2343 23.4207C41.4683 22.9227 42.1643 21.5427 42.2243 21.4467C43.1482 20.0428 45.7521 17.8469 47.57 18.3689C47.8685 18.4599 48.1444 18.6129 48.3798 18.8177C48.6152 19.0226 48.8048 19.2748 48.9361 19.5579C49.0675 19.8409 49.1376 20.1485 49.1421 20.4606C49.1465 20.7726 49.0852 21.082 48.962 21.3688C48.482 22.6047 47.042 23.3787 45.8361 23.7206C44.4742 24.1106 41.4383 23.6546 41.1983 23.6126C40.9417 25.3496 40.5689 27.0674 40.0824 28.7544C39.8024 29.7384 39.4984 30.7203 39.1704 31.7003C39.3804 31.2743 39.5784 30.8963 39.6084 30.8483C40.5323 29.4384 43.1422 27.2485 44.9541 27.7705C45.2526 27.8615 45.5286 28.0144 45.7639 28.2193C45.9993 28.4242 46.1889 28.6764 46.3202 28.9595C46.4516 29.2425 46.5218 29.5501 46.5262 29.8621C46.5307 30.1742 46.4693 30.4836 46.3461 30.7703C45.8661 32.0063 44.4262 32.7802 43.2202 33.1222C42.0143 33.4642 39.3984 33.1222 38.7144 33.0322L38.3364 34.1602C37.7365 35.9601 37.0825 37.76 36.5365 39.5239C36.3385 40.1239 36.1645 40.7719 35.9905 41.3958C36.1825 41.0179 36.3445 40.6999 36.3745 40.6519C37.2925 39.2479 39.9024 37.052 41.7143 37.574C42.0122 37.666 42.2876 37.8194 42.5226 38.0244C42.7576 38.2293 42.9471 38.4812 43.0788 38.7638C43.2105 39.0464 43.2815 39.3535 43.2873 39.6653C43.293 39.9771 43.2334 40.2866 43.1122 40.5739C42.6322 41.8158 41.1863 42.5838 39.9804 42.9318C38.7744 43.2798 36.4165 42.9738 35.6006 42.8598C35.4386 43.5017 35.2826 44.1437 35.1566 44.7737C35.0786 45.2117 34.9766 45.6196 34.9226 46.0576L34.7426 47.3476C34.6586 48.1695 34.5626 49.0155 34.5026 49.8195C34.4546 50.3774 34.4186 50.9114 34.3826 51.4514C34.5746 50.8514 34.9826 49.6095 34.9826 49.5135C35.647 48.1935 36.6385 47.0657 37.8625 46.2376C37.9277 46.0847 38.0102 45.9398 38.1084 45.8056C38.2783 45.5435 38.5016 45.3202 38.7636 45.1502C39.0257 44.9803 39.3207 44.8676 39.6293 44.8194C39.9379 44.7713 40.2533 44.7889 40.5546 44.8709C40.856 44.953 41.1367 45.0977 41.3783 45.2957C42.8062 46.5256 42.4462 49.8975 41.7923 51.4454C41.7563 51.5354 41.2223 52.4773 40.8803 53.0713C41.1383 52.7533 41.3783 52.4413 41.6483 52.1234C42.1703 51.4814 42.7102 50.8574 43.2862 50.1854L44.1682 49.2315C44.4562 48.9075 44.8041 48.6315 45.1221 48.2775C45.8721 47.5516 46.6701 46.8496 47.492 46.1596C46.934 45.7036 44.9661 44.0477 44.4022 42.9198C43.8382 41.7918 43.4362 40.2139 44.0242 39.0199C44.1535 38.7352 44.3412 38.4808 44.5751 38.2733C44.8091 38.0658 45.084 37.9097 45.3821 37.8152C45.6802 37.7208 45.9948 37.69 46.3056 37.7249C46.6164 37.7599 46.9163 37.8597 47.186 38.018C48.776 39.02 48.938 42.4098 48.524 44.0177C48.524 44.1197 48.068 45.2537 47.822 45.8716C48.32 45.4637 48.812 45.0557 49.3279 44.6717C50.8159 43.5257 52.3578 42.4038 53.8877 41.2818L55.2857 40.2499C55.0877 40.0879 52.7118 38.168 52.0758 36.902C51.5178 35.7801 51.1099 34.1962 51.6978 33.0082C51.8264 32.7228 52.0137 32.4678 52.2476 32.2597C52.4814 32.0516 52.7565 31.8952 53.0548 31.8007C53.3532 31.7061 53.6682 31.6756 53.9792 31.711C54.2902 31.7464 54.5902 31.847 54.8597 32.0063C56.4556 33.0022 56.6116 36.3921 56.1976 38.006C56.1676 38.126 55.5497 39.7579 55.3757 40.1659C56.3956 39.4039 57.4096 38.636 58.3755 37.832C59.6898 36.7606 60.9324 35.6042 62.0954 34.3702C62.0054 34.2922 59.5155 32.3003 58.8675 31.0103C58.3035 29.8884 57.9015 28.2984 58.4895 27.1105C58.6182 26.8259 58.8053 26.5717 59.0387 26.3642C59.2721 26.1567 59.5465 26.0006 59.8441 25.9061C60.1418 25.8116 60.456 25.7808 60.7663 25.8157C61.0766 25.8505 61.3761 25.9503 61.6454 26.1085C63.2413 27.1105 63.4033 30.5003 62.9893 32.1083C62.9893 32.2163 62.4913 33.4582 62.2574 34.0462L62.3474 34.1062C63.4839 32.8307 64.5059 31.4574 65.4012 30.0024C65.9052 29.2044 66.3372 28.4184 66.7451 27.6445C66.2412 27.3205 63.9673 25.8145 63.2533 24.7166C62.5393 23.6186 61.9994 22.1307 62.4493 20.8828C62.5458 20.5853 62.7038 20.3115 62.9131 20.0791C63.1225 19.8468 63.3784 19.6612 63.6643 19.5344C63.9501 19.4076 64.2595 19.3425 64.5722 19.3432C64.8849 19.344 65.194 19.4106 65.4792 19.5388C67.1771 20.3608 67.7051 23.7386 67.4711 25.3766C67.4711 25.4666 67.2311 26.3725 67.0571 27.0265C67.2311 26.6725 67.4231 26.3125 67.5851 25.9705C68.1851 24.6926 68.6951 23.4807 69.115 22.3707C69.355 21.7707 69.553 21.2008 69.715 20.6728C69.385 20.0728 68.1011 17.7689 67.9751 16.473C67.8491 15.177 68.0531 13.6051 69.0311 12.7051C69.2537 12.486 69.52 12.3162 69.8126 12.2067C70.1053 12.0973 70.4176 12.0507 70.7295 12.0699C71.0413 12.0892 71.3456 12.1738 71.6225 12.3184C71.8995 12.463 72.1429 12.6643 72.3369 12.9091C73.4648 14.4151 72.3909 17.6369 71.4189 19.0049C71.3349 19.1248 69.805 20.8048 69.787 20.8048V20.7688C69.619 21.2788 69.439 21.8247 69.223 22.4127C68.8271 23.5047 68.3651 24.7286 67.7711 26.0125C67.1432 27.4174 66.4361 28.7856 65.6532 30.1104C64.7795 31.5963 63.7756 33.0018 62.6533 34.3102L62.6113 34.3582C63.0793 34.0702 64.4113 33.3022 64.5252 33.2542C66.0732 32.5942 69.445 32.2223 70.681 33.6382C70.8799 33.8792 71.0259 34.1593 71.1094 34.4604C71.1929 34.7615 71.2121 35.0768 71.1656 35.3859C71.1192 35.6949 71.0083 35.9906 70.84 36.2539C70.6717 36.5172 70.4499 36.7421 70.189 36.914C69.103 37.682 67.4771 37.514 66.2772 37.154C64.9272 36.7221 62.6773 34.6701 62.4733 34.5022C61.3015 35.8095 60.0427 37.0363 58.7055 38.174C57.9315 38.84 57.1276 39.4879 56.3056 40.1299C56.7196 39.8899 57.0916 39.6799 57.1456 39.6559C58.6875 38.9959 62.0594 38.624 63.2953 40.0399C63.4951 40.2805 63.6419 40.5606 63.7259 40.8618C63.81 41.1631 63.8294 41.4787 63.7829 41.788C63.7365 42.0973 63.6252 42.3933 63.4564 42.6566C63.2876 42.9198 63.065 43.1445 62.8033 43.3158C61.7234 44.0837 60.0915 43.9157 58.8975 43.5557C57.7036 43.1958 55.7056 41.4558 55.1897 40.9939C54.8717 41.2338 54.5897 41.4798 54.2477 41.7258C52.7418 42.8778 51.2478 44.0237 49.7779 45.1997C49.2679 45.6077 48.782 46.0336 48.29 46.4596L49.0219 46.0516C50.5639 45.3917 53.9357 45.0137 55.1717 46.4296C55.3707 46.6711 55.5168 46.9517 55.6003 47.2533C55.6839 47.5549 55.7031 47.8706 55.6567 48.1801C55.6103 48.4896 55.4993 48.7859 55.331 49.0497C55.1627 49.3135 54.9408 49.539 54.6797 49.7115C53.5997 50.4794 51.9678 50.3114 50.7739 49.9455C49.5799 49.5795 47.774 48.0135 47.174 47.4676C46.6881 47.9175 46.1961 48.3675 45.7461 48.8235C45.4401 49.1415 45.1461 49.4235 44.8461 49.7655L43.9822 50.7374C43.4602 51.3794 42.9142 52.0334 42.4162 52.6693C42.0683 53.1073 41.7443 53.5333 41.4203 53.9653C41.9183 53.5453 42.9262 52.7653 43.0162 52.6933C44.4382 51.8054 47.72 50.8934 49.1539 52.1414C49.3863 52.3501 49.5722 52.6054 49.6994 52.8907C49.8266 53.176 49.8924 53.4849 49.8924 53.7973C49.8924 54.1097 49.8266 54.4185 49.6994 54.7038C49.5722 54.9891 49.3863 55.2445 49.1539 55.4532C48.194 56.3772 46.5621 56.4732 45.3261 56.2812C43.9582 56.0652 41.4863 54.4813 41.1803 54.2533C40.6403 54.9672 40.1244 55.6572 39.6444 56.3232C37.9824 58.6211 36.6865 60.601 35.7985 61.9929L35.7085 62.1369L34.5566 61.5789L34.7366 61.3029C35.6666 59.911 37.0225 57.9431 38.7504 55.6632C39.2964 54.9372 39.8904 54.1753 40.5083 53.4013C39.8657 52.6991 39.2647 51.9599 38.7084 51.1874C37.3825 51.7094 34.6346 51.7274 34.2746 51.7274C34.2206 52.6153 34.1726 53.4853 34.1366 54.3013C34.0166 57.1331 34.0286 59.497 34.0586 61.1529V61.3449L32.7927 60.745C32.7927 59.101 32.8587 56.8811 33.0267 54.2533C33.0807 53.3533 33.1587 52.3873 33.2487 51.3974C32.8947 51.3074 30.0328 50.5754 28.9529 49.7115C27.9749 48.9255 26.9429 47.6596 26.9789 46.3276C26.9765 46.0151 27.04 45.7057 27.1651 45.4193C27.2902 45.133 27.4742 44.8762 27.7051 44.6657C27.936 44.4551 28.2086 44.2956 28.5053 44.1974C28.8019 44.0992 29.1159 44.0645 29.4268 44.0957C31.2927 44.3357 32.8587 47.3476 33.1647 48.9975C33.1647 49.0995 33.2607 50.1974 33.2967 50.8574C33.3387 50.4554 33.3687 50.0594 33.4167 49.6575C33.4946 48.8355 33.6026 48.0195 33.7166 47.1376C33.7826 46.7116 33.8546 46.2856 33.9206 45.8536C33.9866 45.4217 34.1006 44.9777 34.1906 44.5337C34.4186 43.5137 34.6946 42.4878 35.0006 41.4618C34.2806 41.3898 31.7307 41.0899 30.6388 40.4599C29.5468 39.8299 28.3349 38.738 28.1729 37.418C28.1227 37.1093 28.1382 36.7934 28.2183 36.4911C28.2984 36.1887 28.4413 35.9066 28.6378 35.6632C28.8342 35.4198 29.0797 35.2205 29.3583 35.0783C29.637 34.9362 29.9424 34.8543 30.2548 34.8381C32.1327 34.7961 34.1366 37.532 34.6886 39.1219C34.7246 39.2179 34.9946 40.3999 35.1326 41.0539C35.3186 40.4539 35.4986 39.8239 35.7325 39.2059C36.3325 37.406 37.0105 35.6481 37.6705 33.8662C37.8745 33.3202 38.0664 32.7742 38.2704 32.2283C38.0124 32.2283 34.9706 31.9103 33.7466 31.2083C32.6607 30.6083 31.4487 29.4864 31.2807 28.1664C31.2316 27.8578 31.2477 27.5423 31.3282 27.2404C31.4087 26.9384 31.5517 26.6567 31.7479 26.4135C31.9442 26.1703 32.1893 25.971 32.4675 25.8286C32.7456 25.6861 33.0506 25.6037 33.3627 25.5866C35.2466 25.5446 37.2505 28.2804 37.8025 29.8704C37.8445 29.9904 38.2284 31.6703 38.3064 32.1263C38.7384 30.9263 39.1644 29.7264 39.5064 28.5264C40.0138 26.9064 40.4146 25.255 40.7063 23.5826C40.5863 23.5826 37.4125 23.2827 36.1585 22.5627C35.0666 21.9627 33.8546 20.8408 33.6926 19.5208C33.6424 19.2124 33.6579 18.8968 33.7381 18.5948C33.8182 18.2928 33.9612 18.0111 34.1577 17.7681C34.3543 17.5251 34.5999 17.3264 34.8785 17.1849C35.1571 17.0434 35.4624 16.9623 35.7745 16.9469C37.6525 16.8989 39.6564 19.6348 40.2083 21.2248C40.2443 21.3267 40.5443 22.6227 40.6703 23.2467H40.7723C41.0201 21.5567 41.1165 19.848 41.0603 18.1409C41.0603 17.1989 40.9703 16.305 40.8803 15.435C40.2803 15.435 37.5565 15.435 36.3565 14.913C35.1566 14.3911 33.8786 13.4551 33.5666 12.1652C33.4834 11.863 33.465 11.5467 33.5124 11.2369C33.5599 10.927 33.6723 10.6308 33.8422 10.3674C34.0121 10.104 34.2358 9.87952 34.4984 9.70855C34.7611 9.53758 35.057 9.42402 35.3666 9.37529C37.2325 9.1173 39.5244 11.6252 40.2503 13.1371C40.2863 13.2211 40.5983 14.1031 40.8083 14.751C40.7663 14.3551 40.7243 13.9471 40.6703 13.5511C40.4843 12.1412 40.2203 10.8632 39.9804 9.72927C39.8364 9.0873 39.6984 8.52933 39.5604 7.97135C38.9604 7.67137 36.6085 6.43542 35.8045 5.43947C35.0006 4.44351 34.2806 2.99758 34.6046 1.71364C34.6763 1.41043 34.8109 1.12566 34.9996 0.877746C35.1883 0.62983 35.4269 0.424289 35.7001 0.274423C35.9732 0.124557 36.2748 0.0337041 36.5853 0.00774171C36.8957 -0.0182206 37.2082 0.0212864 37.5025 0.123706Z" fill="white"/>
<path d="M71.5089 29.0966C70.039 29.0366 67.0991 27.5306 67.0991 27.5306C67.0991 27.5306 68.677 25.8927 68.791 25.8027C70.105 24.7587 73.2608 23.5048 74.8268 24.5488C75.0827 24.7281 75.298 24.9594 75.4584 25.2277C75.6187 25.496 75.7207 25.795 75.7575 26.1054C75.7943 26.4158 75.7652 26.7304 75.672 27.0288C75.5788 27.3271 75.4237 27.6024 75.2168 27.8366C74.3768 28.8626 72.7629 29.1505 71.5089 29.0966Z" fill="white"/>
</g>
<path d="M54.3436 65.9107C54.3436 65.9107 45.422 44.4077 40.4302 45.3437C35.4385 46.2796 48.9918 79.6261 48.9918 79.6261C48.9918 79.6261 33.2965 50.0175 22.593 50.0175C11.8895 50.0175 26.5169 82.74 40.1062 93.6475C40.1062 93.6475 18.6992 70.5845 6.21377 75.5703C-6.27166 80.5561 31.1546 103.919 31.1546 103.919C31.1546 103.919 9.39363 97.0733 11.9075 102.377C14.4214 107.681 21.1831 108.605 21.1831 108.605L26.9068 109.853H58.1054L62.9052 107.987C62.9052 107.987 82.8843 98.0093 77.5326 93.9595C72.1808 89.9096 60.4093 98.6333 60.4093 98.6333C60.4093 98.6333 80.7424 76.1943 76.8186 67.7826C72.8948 59.371 55.4115 83.052 55.4115 83.052C55.4115 83.052 69.6849 52.8193 66.811 47.5216C63.9372 42.2238 54.3436 65.9107 54.3436 65.9107Z" fill="#BB002D"/>
<path opacity="0.4" d="M54.3436 65.9107C54.3436 65.9107 45.422 44.4077 40.4302 45.3437C35.4385 46.2796 48.9918 79.6261 48.9918 79.6261C48.9918 79.6261 33.2965 50.0175 22.593 50.0175C11.8895 50.0175 26.5169 82.74 40.1062 93.6475C40.1062 93.6475 18.6992 70.5845 6.21377 75.5703C-6.27166 80.5561 31.1546 103.919 31.1546 103.919C31.1546 103.919 9.39363 97.0733 11.9075 102.377C14.4214 107.681 21.1831 108.605 21.1831 108.605L30.5067 109.853H55.7055L62.9052 107.987C62.9052 107.987 82.8843 98.0093 77.5326 93.9595C72.1808 89.9096 60.4093 98.6333 60.4093 98.6333C60.4093 98.6333 80.7424 76.1943 76.8186 67.7826C72.8948 59.371 55.4115 83.052 55.4115 83.052C55.4115 83.052 69.6849 52.8193 66.811 47.5216C63.9372 42.2238 54.3436 65.9107 54.3436 65.9107Z" fill="white"/>
<path d="M57.1995 67.0447C49.3518 90.2336 49.3518 106.643 49.3518 106.643C49.3518 106.643 58.6274 107.003 68.2569 99.8632" stroke="#263238" stroke-linecap="round" stroke-linejoin="round"/>
<path d="M53.3056 79.5301C51.6863 72.5982 49.5381 65.8006 46.8799 59.197" stroke="#263238" stroke-linecap="round" stroke-linejoin="round"/>
<path d="M30.0867 65.9707L50.0598 95.5854C50.0598 95.5854 63.6192 84.1859 68.2569 77.7482" stroke="#263238" stroke-linecap="round" stroke-linejoin="round"/>
<path d="M49.7058 102.719C49.7058 102.719 28.6588 92.7294 20.0972 87.0237" stroke="#263238" stroke-linecap="round" stroke-linejoin="round"/>
<path d="M113.069 17.9011H108.731V198.667H113.069V17.9011Z" fill="#C2C2C2" stroke="#ABABAB" stroke-linecap="round" stroke-linejoin="round"/>
<path d="M35.0365 17.9011H30.6987V198.667H35.0365V17.9011Z" fill="#C2C2C2" stroke="#ABABAB" stroke-linecap="round" stroke-linejoin="round"/>
<path d="M74.0526 17.9011H69.7148V198.667H74.0526V17.9011Z" fill="#C2C2C2" stroke="#ABABAB" stroke-linecap="round" stroke-linejoin="round"/>
<path d="M152.079 17.9011H147.741V198.667H152.079V17.9011Z" fill="#C2C2C2" stroke="#ABABAB" stroke-linecap="round" stroke-linejoin="round"/>
<path d="M150.777 23.5347H29.3008V31.7723H150.777V23.5347Z" fill="#C2C2C2" stroke="#ABABAB" stroke-linecap="round" stroke-linejoin="round"/>
<path d="M150.777 23.5347H72.6008V31.7723H150.777V23.5347Z" fill="#A6A6A6" stroke="#ABABAB" stroke-linecap="round" stroke-linejoin="round"/>
<path d="M150.777 106.481H29.3008V114.719H150.777V106.481Z" fill="#C2C2C2" stroke="#ABABAB" stroke-linecap="round" stroke-linejoin="round"/>
<path d="M150.777 106.481H72.6008V114.719H150.777V106.481Z" fill="#A6A6A6" stroke="#ABABAB" stroke-linecap="round" stroke-linejoin="round"/>
<path d="M150.777 189.421H29.3008V197.659H150.777V189.421Z" fill="#C2C2C2" stroke="#ABABAB" stroke-linecap="round" stroke-linejoin="round"/>
<path d="M150.777 189.421H72.6008V197.659H150.777V189.421Z" fill="#A6A6A6" stroke="#ABABAB" stroke-linecap="round" stroke-linejoin="round"/>
<path d="M72.6188 145.197H9.04565V198.601H72.6188V145.197Z" fill="#BB002D"/>
<mask id="mask0_367_239" style="mask-type:luminance" maskUnits="userSpaceOnUse" x="9" y="145" width="64" height="54">
<path d="M72.6188 145.197H9.04565V198.601H72.6188V145.197Z" fill="white"/>
</mask>
<g mask="url(#mask0_367_239)">
<path opacity="0.6" d="M72.6188 145.197H9.04565V198.601H72.6188V145.197Z" fill="white" stroke="#696969" stroke-linecap="round" stroke-linejoin="round"/>
</g>
<path d="M72.6188 145.197H9.04565V198.601H72.6188V145.197Z" stroke="#696969" stroke-linecap="round" stroke-linejoin="round"/>
<path d="M72.6187 145.197H51.4937V198.601H72.6187V145.197Z" fill="#BB002D"/>
<mask id="mask1_367_239" style="mask-type:luminance" maskUnits="userSpaceOnUse" x="51" y="145" width="22" height="54">
<path d="M72.6187 145.197H51.4937V198.601H72.6187V145.197Z" fill="white"/>
</mask>
<g mask="url(#mask1_367_239)">
<path opacity="0.39" d="M72.6187 145.197H51.4937V198.601H72.6187V145.197Z" fill="white" stroke="#696969" stroke-linecap="round" stroke-linejoin="round"/>
</g>
<path d="M72.6187 145.197H51.4937V198.601H72.6187V145.197Z" stroke="#696969" stroke-linecap="round" stroke-linejoin="round"/>
<path d="M62.2754 145.341V198.667" stroke="#696969" stroke-linecap="round" stroke-linejoin="round"/>
<path d="M75.8285 91.8774H12.2554V145.281H75.8285V91.8774Z" fill="#BB002D"/>
<mask id="mask2_367_239" style="mask-type:luminance" maskUnits="userSpaceOnUse" x="12" y="91" width="64" height="55">
<path d="M75.8285 91.8774H12.2554V145.281H75.8285V91.8774Z" fill="white"/>
</mask>
<g mask="url(#mask2_367_239)">
<path opacity="0.6" d="M75.8285 91.8774H12.2554V145.281H75.8285V91.8774Z" fill="white" stroke="#696969" stroke-linecap="round" stroke-linejoin="round"/>
</g>
<path d="M75.8285 91.8774H12.2554V145.281H75.8285V91.8774Z" stroke="#696969" stroke-linecap="round" stroke-linejoin="round"/>
<path d="M75.8287 91.8774H54.7036V145.281H75.8287V91.8774Z" fill="#BB002D"/>
<mask id="mask3_367_239" style="mask-type:luminance" maskUnits="userSpaceOnUse" x="54" y="91" width="22" height="55">
<path d="M75.8287 91.8774H54.7036V145.281H75.8287V91.8774Z" fill="white"/>
</mask>
<g mask="url(#mask3_367_239)">
<path opacity="0.39" d="M75.8287 91.8774H54.7036V145.281H75.8287V91.8774Z" fill="white" stroke="#696969" stroke-linecap="round" stroke-linejoin="round"/>
</g>
<path d="M75.8287 91.8774H54.7036V145.281H75.8287V91.8774Z" stroke="#696969" stroke-linecap="round" stroke-linejoin="round"/>
<path d="M65.4851 92.0215V145.347" stroke="#696969" stroke-linecap="round" stroke-linejoin="round"/>
<path d="M241.265 145.197H177.692V198.601H241.265V145.197Z" fill="#BB002D"/>
<mask id="mask4_367_239" style="mask-type:luminance" maskUnits="userSpaceOnUse" x="177" y="145" width="65" height="54">
<path d="M241.265 145.197H177.692V198.601H241.265V145.197Z" fill="white"/>
</mask>
<g mask="url(#mask4_367_239)">
<path opacity="0.6" d="M241.265 145.197H177.692V198.601H241.265V145.197Z" fill="white" stroke="#919191" stroke-linecap="round" stroke-linejoin="round"/>
</g>
<path d="M241.265 145.197H177.692V198.601H241.265V145.197Z" stroke="#919191" stroke-linecap="round" stroke-linejoin="round"/>
<path d="M241.265 145.197H220.14V198.601H241.265V145.197Z" fill="#BB002D"/>
<mask id="mask5_367_239" style="mask-type:luminance" maskUnits="userSpaceOnUse" x="220" y="145" width="22" height="54">
<path d="M241.265 145.197H220.14V198.601H241.265V145.197Z" fill="white"/>
</mask>
<g mask="url(#mask5_367_239)">
<path opacity="0.39" d="M241.265 145.197H220.14V198.601H241.265V145.197Z" fill="white" stroke="#919191" stroke-linecap="round" stroke-linejoin="round"/>
</g>
<path d="M241.265 145.197H220.14V198.601H241.265V145.197Z" stroke="#919191" stroke-linecap="round" stroke-linejoin="round"/>
<path d="M230.922 145.341V198.667" stroke="#919191" stroke-linecap="round" stroke-linejoin="round"/>
<path d="M241.265 91.7395H177.692V145.143H241.265V91.7395Z" fill="#BB002D"/>
<mask id="mask6_367_239" style="mask-type:luminance" maskUnits="userSpaceOnUse" x="177" y="91" width="65" height="55">
<path d="M241.265 91.7395H177.692V145.143H241.265V91.7395Z" fill="white"/>
</mask>
<g mask="url(#mask6_367_239)">
<path opacity="0.6" d="M241.265 91.7395H177.692V145.143H241.265V91.7395Z" fill="white" stroke="#919191" stroke-linecap="round" stroke-linejoin="round"/>
</g>
<path d="M241.265 91.7395H177.692V145.143H241.265V91.7395Z" stroke="#919191" stroke-linecap="round" stroke-linejoin="round"/>
<path d="M241.265 91.7395H220.14V145.143H241.265V91.7395Z" fill="#BB002D"/>
<mask id="mask7_367_239" style="mask-type:luminance" maskUnits="userSpaceOnUse" x="220" y="91" width="22" height="55">
<path d="M241.265 91.7395H220.14V145.143H241.265V91.7395Z" fill="white"/>
</mask>
<g mask="url(#mask7_367_239)">
<path opacity="0.39" d="M241.265 91.7395H220.14V145.143H241.265V91.7395Z" fill="white" stroke="#919191" stroke-linecap="round" stroke-linejoin="round"/>
</g>
<path d="M241.265 91.7395H220.14V145.143H241.265V91.7395Z" stroke="#919191" stroke-linecap="round" stroke-linejoin="round"/>
<path d="M230.922 91.8835V145.209" stroke="#919191" stroke-linecap="round" stroke-linejoin="round"/>
<path d="M235.679 47.5215H183.092V91.6975H235.679V47.5215Z" fill="#BB002D"/>
<mask id="mask8_367_239" style="mask-type:luminance" maskUnits="userSpaceOnUse" x="183" y="47" width="53" height="45">
<path d="M235.679 47.5215H183.092V91.6975H235.679V47.5215Z" fill="white"/>
</mask>
<g mask="url(#mask8_367_239)">
<path opacity="0.6" d="M235.679 47.5215H183.092V91.6975H235.679V47.5215Z" fill="white" stroke="#919191" stroke-linecap="round" stroke-linejoin="round"/>
</g>
<path d="M235.679 47.5215H183.092V91.6975H235.679V47.5215Z" stroke="#919191" stroke-linecap="round" stroke-linejoin="round"/>
<path d="M235.679 47.5215H218.208V91.6975H235.679V47.5215Z" fill="#BB002D"/>
<mask id="mask9_367_239" style="mask-type:luminance" maskUnits="userSpaceOnUse" x="218" y="47" width="18" height="45">
<path d="M235.679 47.5215H218.208V91.6975H235.679V47.5215Z" fill="white"/>
</mask>
<g mask="url(#mask9_367_239)">
<path opacity="0.39" d="M235.679 47.5215H218.208V91.6975H235.679V47.5215Z" fill="white" stroke="#919191" stroke-linecap="round" stroke-linejoin="round"/>
</g>
<path d="M235.679 47.5215H218.208V91.6975H235.679V47.5215Z" stroke="#919191" stroke-linecap="round" stroke-linejoin="round"/>
<path d="M227.124 47.6416V91.7516" stroke="#919191" stroke-linecap="round" stroke-linejoin="round"/>
<path d="M228.954 178.526H220.716V183.679H228.954V178.526Z" fill="white" stroke="#263238" stroke-linecap="round" stroke-linejoin="round"/>
<path d="M151.437 198.667C154.188 198.667 156.417 196.437 156.417 193.687C156.417 190.937 154.188 188.707 151.437 188.707C148.687 188.707 146.458 190.937 146.458 193.687C146.458 196.437 148.687 198.667 151.437 198.667Z" fill="#263238" stroke="#263238" stroke-linecap="round" stroke-linejoin="round"/>
<path d="M233.382 111.263H230.442V193.801H233.382V111.263Z" fill="#263238" stroke="#263238" stroke-linecap="round" stroke-linejoin="round"/>
<path d="M231.816 140.133L224.862 134.602C221.904 132.245 219.686 129.088 218.47 125.507C217.254 121.926 217.093 118.071 218.004 114.401C218.272 113.329 218.89 112.378 219.759 111.696C220.628 111.015 221.7 110.643 222.804 110.639H240.803C241.908 110.641 242.981 111.012 243.85 111.694C244.72 112.375 245.337 113.328 245.603 114.401C246.516 118.07 246.356 121.925 245.141 125.506C243.926 129.088 241.708 132.244 238.751 134.602L231.816 140.133ZM222.816 113.453C222.335 113.451 221.868 113.611 221.489 113.907C221.111 114.203 220.843 114.618 220.728 115.084C219.944 118.23 220.081 121.535 221.122 124.605C222.164 127.675 224.066 130.38 226.602 132.4L231.804 136.54L237.011 132.4C239.548 130.381 241.452 127.676 242.495 124.606C243.539 121.536 243.678 118.231 242.897 115.084C242.782 114.618 242.513 114.204 242.135 113.908C241.756 113.612 241.29 113.452 240.809 113.453H222.816Z" fill="#263238"/>
<path d="M214.554 181.106H123.52V191.701H214.554V181.106Z" fill="white"/>
<mask id="mask10_367_239" style="mask-type:luminance" maskUnits="userSpaceOnUse" x="123" y="181" width="92" height="11">
<path d="M214.554 181.106H123.52V191.701H214.554V181.106Z" fill="white"/>
</mask>
<g mask="url(#mask10_367_239)">
<path opacity="0.28" d="M214.554 181.106H123.52V191.701H214.554V181.106Z" fill="black" stroke="#263238" stroke-linecap="round" stroke-linejoin="round"/>
</g>
<path d="M214.554 181.106H123.52V191.701H214.554V181.106Z" stroke="#263238" stroke-linecap="round" stroke-linejoin="round"/>
<path d="M133.72 181.106H123.52V191.701H133.72V181.106Z" stroke="#263238" stroke-linecap="round" stroke-linejoin="round"/>
<path d="M214.548 181.106H204.349V191.701H214.548V181.106Z" stroke="#263238" stroke-linecap="round" stroke-linejoin="round"/>
<path d="M174.134 181.106H163.935V191.701H174.134V181.106Z" stroke="#263238" stroke-linecap="round" stroke-linejoin="round"/>
<path d="M214.554 191.701H220.83L228.678 161.876H222.402L214.554 191.701Z" fill="white" stroke="#263238" stroke-linecap="round" stroke-linejoin="round"/>
<path d="M236.033 174.434H227.796V187.777H236.033V174.434Z" fill="white" stroke="#263238" stroke-linecap="round" stroke-linejoin="round"/>
<path d="M229.896 198.667C229.429 198.659 228.983 198.47 228.653 198.14C228.322 197.81 228.133 197.364 228.126 196.897V190.255C228.133 189.788 228.322 189.343 228.653 189.012C228.983 188.682 229.429 188.493 229.896 188.485C230.363 188.493 230.808 188.682 231.139 189.012C231.469 189.343 231.658 189.788 231.666 190.255V196.915C231.653 197.379 231.462 197.82 231.133 198.146C230.803 198.473 230.36 198.659 229.896 198.667Z" fill="#263238"/>
<path d="M234.101 198.667C233.634 198.659 233.189 198.47 232.858 198.14C232.528 197.81 232.339 197.364 232.332 196.897V190.255C232.339 189.788 232.528 189.343 232.858 189.012C233.189 188.682 233.634 188.493 234.101 188.485C234.574 188.485 235.027 188.671 235.364 189.002C235.7 189.333 235.894 189.783 235.901 190.255V196.915C235.889 197.384 235.694 197.83 235.358 198.157C235.021 198.484 234.571 198.667 234.101 198.667Z" fill="#263238"/>
<path d="M1 198.667H249.275" stroke="#263238" stroke-linecap="round" stroke-linejoin="round"/>
<path d="M86.6582 216C110.595 216 130 213.642 130 210.732C130 207.823 110.595 205.465 86.6582 205.465C62.7211 205.465 43.3162 207.823 43.3162 210.732C43.3162 213.642 62.7211 216 86.6582 216Z" fill="#BB002D"/>
<path opacity="0.5" d="M86.6582 216C110.595 216 130 213.642 130 210.732C130 207.823 110.595 205.465 86.6582 205.465C62.7211 205.465 43.3162 207.823 43.3162 210.732C43.3162 213.642 62.7211 216 86.6582 216Z" fill="white"/>
<path d="M176.348 210.714C176.348 212.166 166.671 213.342 154.749 213.342C142.828 213.342 133.15 212.142 133.15 210.714C133.15 209.286 142.822 208.092 154.749 208.092C166.677 208.092 176.348 209.286 176.348 210.714Z" fill="#BB002D"/>
<path opacity="0.5" d="M176.348 210.714C176.348 212.166 166.671 213.342 154.749 213.342C142.828 213.342 133.15 212.142 133.15 210.714C133.15 209.286 142.822 208.092 154.749 208.092C166.677 208.092 176.348 209.286 176.348 210.714Z" fill="white"/>
<path d="M95.3036 37.196C95.3036 37.196 91.9497 34.5621 88.1039 35.8761C84.2581 37.19 81.3422 43.5977 80.3043 48.8055C79.2663 54.0133 75.2765 57.9611 76.2365 64.0688C77.1964 70.1765 84.1381 71.1305 92.5197 72.0304C100.901 72.9304 105.449 71.9104 109.397 66.4027C113.345 60.8949 111.671 54.1932 109.337 48.2655C107.003 42.3378 103.115 36.836 99.8814 35.8161C96.6475 34.7961 95.3036 37.196 95.3036 37.196Z" fill="#263238" stroke="#263238" stroke-linecap="round" stroke-linejoin="round"/>
<path d="M81.4443 68.5205C82.0103 68.775 82.5988 68.9759 83.2023 69.1205" stroke="white" stroke-linecap="round" stroke-linejoin="round"/>
<path d="M94.4639 41.4619C93.0969 44.516 91.3643 47.3929 89.3041 50.0295C85.8722 54.4393 78.2826 58.6031 77.7966 63.2289C77.7185 63.8483 77.7728 64.4771 77.9559 65.0739C78.1389 65.6707 78.4466 66.2218 78.8586 66.6908" stroke="white" stroke-linecap="round" stroke-linejoin="round"/>
<path d="M108.389 63.5828C108.141 64.1635 107.823 64.7116 107.441 65.2147" stroke="white" stroke-linecap="round" stroke-linejoin="round"/>
<path d="M105.503 51.9915C105.503 51.9915 109.361 56.4433 108.989 61.195" stroke="white" stroke-linecap="round" stroke-linejoin="round"/>
<path d="M93.7317 39.0079C92.2281 38.8548 90.7097 39.0642 89.3037 39.6185C87.8976 40.1728 86.6448 41.0558 85.6501 42.1937C85.5121 42.3497 85.3861 42.5057 85.2661 42.6617" stroke="white" stroke-linecap="round" stroke-linejoin="round"/>
<path d="M71.5989 152.097L70.8489 163.64C70.8489 163.64 67.6571 179.126 66.6491 185.509C65.6412 191.893 63.7933 201.601 63.4573 201.601C63.1213 201.601 57.6135 204.93 55.8496 207.648C54.0857 210.366 56.3236 211.518 58.7715 210.648C61.2194 209.778 64.5432 207.318 65.6292 204.397C66.7151 201.475 67.2551 200.389 67.3271 199.915C67.3991 199.441 79.0086 168.272 80.1605 164.942C81.3125 161.612 83.7604 151.833 83.7604 151.833L89.4661 132.478C89.4661 132.478 95.5738 152.379 95.6458 153.261C95.7178 154.143 101.958 205.008 102.246 206.91C102.534 208.812 102.45 210.168 103.601 210.576C104.753 210.984 107.471 210.984 108.899 210.984C110.327 210.984 115.283 211.734 117.725 211.122C120.167 210.51 120.443 210.102 118.745 208.878C117.047 207.654 107.615 206.874 106.745 203.311C106.673 203.041 106.607 150.681 106.607 150.681C106.607 150.681 105.791 133.366 104.435 128.482H73.0568L71.5989 152.097Z" fill="white" stroke="#263238" stroke-linecap="round" stroke-linejoin="round"/>
<path d="M58.7655 210.636C61.2074 209.748 64.5372 207.306 65.6232 204.385L65.8512 203.785C64.4652 205.261 62.2513 207.312 62.2513 207.312C62.1156 206.616 61.813 205.964 61.3694 205.41C61.1758 205.197 60.9279 205.04 60.652 204.957C60.3762 204.873 60.0829 204.866 59.8034 204.937L62.2033 202.297C60.4034 203.413 57.1635 205.692 55.8916 207.654C54.0737 210.36 56.3056 211.518 58.7655 210.636Z" fill="#263238" stroke="#263238" stroke-linecap="round" stroke-linejoin="round"/>
<path d="M118.703 208.866C117.539 208.033 112.757 207.403 109.565 205.945C109.433 206.057 109.331 206.199 109.265 206.359C109.063 206.934 108.904 207.523 108.791 208.122L102.191 206.713V206.899C102.461 208.8 102.395 210.156 103.547 210.564C104.699 210.972 107.417 210.972 108.845 210.972C110.273 210.972 115.229 211.722 117.671 211.11C120.113 210.498 120.425 210.114 118.703 208.866Z" fill="#263238" stroke="#263238" stroke-linecap="round" stroke-linejoin="round"/>
<path d="M80.7422 100.319C80.7422 100.319 77.6284 101.753 73.8606 108.521C69.7387 115.906 70.4467 120.01 70.3867 128.92C70.3267 137.829 70.1467 152.619 70.1467 152.619C70.1467 152.619 81.5462 155.673 89.7238 155.193C97.9015 154.713 108.275 152.859 108.275 152.859C108.275 152.859 106.061 122.692 103.967 114.016C101.873 105.341 100.613 101.417 100.613 101.417C96.5664 101.979 92.4656 102.039 88.4039 101.597C81.4622 100.919 80.7422 100.319 80.7422 100.319Z" fill="#263238" stroke="#263238" stroke-linecap="round" stroke-linejoin="round"/>
<path d="M93.8579 127C94.1699 128.026 94.4579 129.064 94.7099 130.102" stroke="white" stroke-linecap="round" stroke-linejoin="round"/>
<path d="M86.6282 110.021C89.0451 114.48 91.119 119.118 92.8319 123.892" stroke="white" stroke-linecap="round" stroke-linejoin="round"/>
<path d="M157.173 94.5835C156.813 94.3435 150.915 93.4195 150.915 93.4195L149.763 92.9456C149.763 92.9456 156.903 93.5155 156.963 93.2155C157.023 92.9156 157.263 92.5556 156.783 92.4956C156.303 92.4356 147.117 90.5697 147.117 90.5697C147.117 90.5697 149.451 88.3618 149.751 87.8818C150.051 87.4018 150.465 86.4418 149.985 86.4418C149.505 86.4418 149.385 86.7418 148.731 87.1618C148.077 87.5818 145.498 88.6018 144.778 89.1957C144.058 89.7897 141.91 91.3496 141.91 91.3496L116.963 87.9178C116.963 87.9178 108.203 77.1183 106.301 74.8144C104.979 73.2769 103.474 71.9068 101.82 70.7346C99.9836 69.9246 100.02 71.2805 100.02 71.2805L103.853 88.3198C103.853 88.3198 113.771 94.2295 114.383 94.2295C114.995 94.2295 141.79 95.1175 141.79 95.1175C141.79 95.1175 143.59 95.9574 144.718 96.6714C145.846 97.3854 153.039 99.6713 153.039 99.6713C153.039 99.6713 153.519 99.4313 152.979 99.0113C152.439 98.5913 148.971 96.9174 148.971 96.9174L156.171 98.4773C156.171 98.4773 156.591 98.1773 156.411 97.8773C156.231 97.5773 149.811 95.1235 149.811 95.1235L157.011 95.4834C157.011 95.4834 157.527 94.8235 157.173 94.5835Z" fill="white" stroke="#263238" stroke-linecap="round" stroke-linejoin="round"/>
<path d="M115.457 86.0639C112.871 82.878 107.705 76.5183 106.301 74.8144C104.979 73.2769 103.474 71.9068 101.82 70.7346C99.9836 69.9246 100.02 71.2805 100.02 71.2805L103.853 88.3198C103.853 88.3198 108.329 90.9836 111.449 92.7356L115.457 86.0639Z" fill="white" stroke="#263238" stroke-linecap="round" stroke-linejoin="round"/>
<path d="M88.9441 69.2766C88.9441 69.2766 83.7364 69.5166 80.5445 73.0504C77.3527 76.5842 77.7307 84.3599 79.0506 89.0277C80.3705 93.6955 82.0505 96.2693 81.6845 97.8893C81.3185 99.5092 80.0105 100.043 80.7245 101.537C81.4385 103.031 85.5723 104.651 92.874 104.411C100.176 104.171 101.556 102.611 101.616 101.243C101.676 99.8752 101.136 98.7292 101.316 97.8893C101.496 97.0493 106.763 92.3815 106.763 87.2338C106.763 82.086 104.489 80.2921 103.949 76.5782C103.409 72.8644 103.589 72.3304 101.376 70.7105C99.1617 69.0906 91.878 68.2566 88.9441 69.2766Z" fill="white" stroke="#263238" stroke-linecap="round" stroke-linejoin="round"/>
<path d="M86.5801 87.1199C84.8396 88.5764 82.9077 89.7876 80.8384 90.7197" stroke="#263238" stroke-linecap="round" stroke-linejoin="round"/>
<path d="M87.1561 87.7197C87.1561 87.7197 85.8662 91.8835 82.7043 94.1814" stroke="#263238" stroke-linecap="round" stroke-linejoin="round"/>
<path d="M100.08 73.0444L100.68 78.7922L98.1597 75.8583L100.08 73.0444Z" fill="white" stroke="#263238" stroke-linecap="round" stroke-linejoin="round"/>
<path d="M96.7256 79.2722L100.079 73.0444L97.0256 69.7566L96.7256 79.2722Z" fill="white" stroke="#263238" stroke-linecap="round" stroke-linejoin="round"/>
<path d="M90.2642 59.1011C90.7871 61.1762 91.0471 63.3088 91.0381 65.4488C91.0206 66.8344 90.8801 68.2158 90.6181 69.5766L96.7259 79.2722L98.4598 70.2726L99.5997 64.0448C99.5997 64.0448 92.6581 63.6489 90.2642 59.1011Z" fill="white" stroke="#263238" stroke-linecap="round" stroke-linejoin="round"/>
<path d="M96.3656 74.0642L96.7256 79.272L94.9316 76.4581L96.3656 74.0642Z" fill="white" stroke="#263238" stroke-linecap="round" stroke-linejoin="round"/>
<path d="M88.5842 69.3367L94.152 79.3323L96.3659 74.0645L90.4441 65.9229L88.5842 69.3367Z" fill="white" stroke="#263238" stroke-linecap="round" stroke-linejoin="round"/>
<path d="M186.128 73.9983H135.604V115.456H186.128V73.9983Z" fill="#BB002D"/>
<mask id="mask11_367_239" style="mask-type:luminance" maskUnits="userSpaceOnUse" x="135" y="73" width="52" height="43">
<path d="M186.128 73.9983H135.604V115.456H186.128V73.9983Z" fill="white"/>
</mask>
<g mask="url(#mask11_367_239)">
<path opacity="0.2" d="M186.128 73.9983H135.604V115.456H186.128V73.9983Z" fill="black"/>
</g>
<path d="M186.128 73.9983H135.604V115.456H186.128V73.9983Z" stroke="#263238" stroke-linecap="round" stroke-linejoin="round"/>
<path d="M175.43 73.9983H124.906V115.456H175.43V73.9983Z" fill="#BB002D" stroke="#263238" stroke-linecap="round" stroke-linejoin="round"/>
<path d="M194.449 129.412C192.829 126.844 186.128 115.457 186.128 115.457H175.436L180.938 129.412H194.449Z" fill="#BB002D"/>
<mask id="mask12_367_239" style="mask-type:luminance" maskUnits="userSpaceOnUse" x="175" y="115" width="20" height="15">
<path d="M194.449 129.412C192.829 126.844 186.128 115.457 186.128 115.457H175.436L180.938 129.412H194.449Z" fill="white"/>
</mask>
<g mask="url(#mask12_367_239)">
<path opacity="0.2" d="M194.449 129.412C192.829 126.844 186.128 115.457 186.128 115.457H175.436L180.938 129.412H194.449Z" fill="black"/>
</g>
<path d="M194.449 129.412C192.829 126.844 186.128 115.457 186.128 115.457H175.436L180.938 129.412H194.449Z" stroke="#263238" stroke-linecap="round" stroke-linejoin="round"/>
<path d="M116.555 129.412C118.175 126.844 124.871 115.457 124.871 115.457H135.568L130.066 129.412H116.555Z" fill="#BB002D" stroke="#263238" stroke-linecap="round" stroke-linejoin="round"/>
<path d="M124.87 115.457L120.22 129.412H172.988L175.436 115.457H124.87Z" fill="#BB002D" stroke="#263238" stroke-linecap="round" stroke-linejoin="round"/>
<path d="M192.631 88.9978V102.881" stroke="#263238" stroke-linecap="round" stroke-linejoin="round"/>
<path d="M195.259 95.0034V106.259" stroke="#263238" stroke-linecap="round" stroke-linejoin="round"/>
<path d="M119.477 102.881V111.509" stroke="#263238" stroke-linecap="round" stroke-linejoin="round"/>
<path d="M117.227 107.759V114.509" stroke="#263238" stroke-linecap="round" stroke-linejoin="round"/>
<path d="M80.2625 84.1799C82.0529 86.2077 84.1309 87.9623 86.4302 89.3876C90.03 91.5415 103.229 99.0232 104.267 99.4432C105.305 99.8631 136.828 94.7154 136.828 94.7154C136.828 94.7154 138.628 95.5553 139.762 96.2693C140.896 96.9833 148.083 99.2692 148.083 99.2692C148.083 99.2692 148.563 99.0292 148.023 98.6152C147.483 98.2012 144.016 96.5153 144.016 96.5153L151.215 98.0752C151.215 98.0752 151.635 97.7752 151.455 97.4752C151.275 97.1753 144.856 94.7214 144.856 94.7214L152.055 95.0814C152.055 95.0814 152.595 94.4214 152.235 94.1814C151.875 93.9414 144.502 92.2615 144.502 92.2615C144.502 92.2615 152.343 91.6015 152.403 91.3015C152.463 91.0015 152.703 90.6476 152.223 90.5876C151.743 90.5276 141.928 89.5676 141.928 89.5676C141.928 89.5676 144.502 87.9537 144.802 87.4737C145.102 86.9937 145.522 86.0338 145.042 86.0338C144.562 86.0338 144.442 86.3338 143.788 86.7537C143.134 87.1737 140.554 88.1937 139.834 88.7876C139.114 89.3816 136.96 90.9475 136.96 90.9475L108.113 91.0075L90.204 76.8782" fill="white"/>
<path d="M80.2625 84.1799C82.0529 86.2077 84.1309 87.9623 86.4302 89.3876C90.03 91.5415 103.229 99.0232 104.267 99.4432C105.305 99.8631 136.828 94.7154 136.828 94.7154C136.828 94.7154 138.628 95.5553 139.762 96.2693C140.896 96.9833 148.083 99.2692 148.083 99.2692C148.083 99.2692 148.563 99.0292 148.023 98.6152C147.483 98.2012 144.016 96.5153 144.016 96.5153L151.215 98.0752C151.215 98.0752 151.635 97.7752 151.455 97.4752C151.275 97.1753 144.856 94.7214 144.856 94.7214L152.055 95.0814C152.055 95.0814 152.595 94.4214 152.235 94.1814C151.875 93.9414 144.502 92.2615 144.502 92.2615C144.502 92.2615 152.343 91.6015 152.403 91.3015C152.463 91.0015 152.703 90.6476 152.223 90.5876C151.743 90.5276 141.928 89.5676 141.928 89.5676C141.928 89.5676 144.502 87.9537 144.802 87.4737C145.102 86.9937 145.522 86.0338 145.042 86.0338C144.562 86.0338 144.442 86.3338 143.788 86.7537C143.134 87.1737 140.554 88.1937 139.834 88.7876C139.114 89.3816 136.96 90.9475 136.96 90.9475L108.113 91.0075L90.204 76.8782" stroke="#263238" stroke-linecap="round" stroke-linejoin="round"/>
<path d="M152.211 90.5875C151.737 90.5275 141.916 89.5675 141.916 89.5675C141.916 89.5675 144.489 87.9536 144.789 87.4736C145.089 86.9936 145.509 86.0337 145.029 86.0337C144.549 86.0337 144.429 86.3337 143.775 86.7537C143.122 87.1736 140.542 88.1936 139.822 88.7876C139.102 89.3815 136.948 90.9475 136.948 90.9475L108.101 91.0075L104.903 88.4696C103.703 90.5755 101.459 94.5233 100.001 97.1272C102.245 98.3751 103.943 99.3051 104.285 99.4431C105.305 99.8631 136.846 94.7153 136.846 94.7153C136.846 94.7153 138.646 95.5553 139.78 96.2692C140.914 96.9832 148.101 99.2691 148.101 99.2691C148.101 99.2691 148.581 99.0291 148.041 98.6151C147.501 98.2011 144.033 96.5152 144.033 96.5152L151.233 98.0751C151.233 98.0751 151.653 97.7752 151.473 97.4752C151.293 97.1752 144.873 94.7213 144.873 94.7213L152.073 95.0813C152.073 95.0813 152.613 94.4213 152.253 94.1813C151.893 93.9413 144.501 92.2614 144.501 92.2614C144.501 92.2614 152.343 91.6014 152.403 91.3015C152.463 91.0015 152.691 90.6475 152.211 90.5875Z" fill="white" stroke="#263238" stroke-linecap="round" stroke-linejoin="round"/>
<path d="M103.907 54.0733C104.009 53.9491 104.145 53.8562 104.297 53.8051C104.45 53.7541 104.613 53.7469 104.77 53.7844C104.926 53.822 105.069 53.9027 105.181 54.0174C105.294 54.1321 105.372 54.2762 105.407 54.4332C105.507 55.0841 105.474 55.7485 105.309 56.386C105.144 57.0235 104.851 57.6206 104.447 58.1411C103.787 58.801 103.187 58.981 103.187 58.1411C103.354 56.7732 103.594 55.4153 103.907 54.0733Z" fill="white" stroke="#263238" stroke-linecap="round" stroke-linejoin="round"/>
<path d="M96.5398 43.5859C96.3294 46.5058 95.08 49.2537 93.018 51.3316C91.0969 53.2206 88.9245 54.8358 86.5623 56.1314C86.5623 56.1314 86.9102 58.0093 87.6182 58.5973C88.3262 59.1852 89.7301 59.0712 89.7301 59.0712C90.5463 61.3029 91.8737 63.3124 93.6059 64.939C96.4198 67.5189 99.7077 67.2849 101.586 63.415C103.463 59.5452 104.405 55.6634 104.171 53.4315L103.937 51.1996C103.937 51.1996 97.8298 47.8097 96.5398 43.5859Z" fill="white" stroke="#263238" stroke-linecap="round" stroke-linejoin="round"/>
<path d="M96.1857 55.1892C96.4839 55.1892 96.7257 54.7594 96.7257 54.2292C96.7257 53.6991 96.4839 53.2693 96.1857 53.2693C95.8875 53.2693 95.6458 53.6991 95.6458 54.2292C95.6458 54.7594 95.8875 55.1892 96.1857 55.1892Z" fill="#263238"/>
<path d="M99.1196 62.8511C99.4178 62.8511 99.6595 62.4213 99.6595 61.8911C99.6595 61.3609 99.4178 60.9312 99.1196 60.9312C98.8213 60.9312 98.5796 61.3609 98.5796 61.8911C98.5796 62.4213 98.8213 62.8511 99.1196 62.8511Z" fill="#263238"/>
<path d="M101.393 55.1892C101.692 55.1892 101.933 54.7594 101.933 54.2292C101.933 53.6991 101.692 53.2693 101.393 53.2693C101.095 53.2693 100.854 53.6991 100.854 54.2292C100.854 54.7594 101.095 55.1892 101.393 55.1892Z" fill="#263238"/>
<path d="M100.314 53.2095C100.107 53.9282 100.046 54.6808 100.134 55.4234C100.314 56.4433 101.154 58.1772 100.434 58.4772C100.105 58.6271 99.7417 58.684 99.3831 58.6417C99.0244 58.5993 98.6843 58.4595 98.3997 58.2372" stroke="#263238" stroke-linecap="round" stroke-linejoin="round"/>
<path d="M94.6257 52.4954C94.6257 52.4954 94.9137 50.6595 97.3196 50.8695" stroke="#263238" stroke-linecap="round" stroke-linejoin="round"/>
<path d="M101.07 51.4334C101.07 51.4334 103.313 49.6335 104.039 52.9274" stroke="#263238" stroke-linecap="round" stroke-linejoin="round"/>
</svg>
