<svg width="411" height="382" viewBox="0 0 411 382" fill="none" xmlns="http://www.w3.org/2000/svg">
<path d="M51.764 130.563C54.495 131.76 61.163 131.61 61.1719 131.61C61.1808 131.61 59.7354 127.238 59.6113 126.972C58.1482 123.913 53.5197 118.859 49.7512 119.364C49.1283 119.467 48.534 119.7 48.0069 120.047C47.4797 120.395 47.0315 120.849 46.6912 121.381C46.3509 121.912 46.1262 122.51 46.0317 123.134C45.9371 123.758 45.9748 124.395 46.1423 125.004C46.763 127.611 49.4408 129.597 51.764 130.563Z" fill="#D53259"/>
<path d="M119.215 132.035C119.269 132.035 120.421 127.602 120.466 127.309C120.936 123.948 119.863 117.183 116.44 115.525C115.864 115.266 115.24 115.131 114.609 115.13C113.977 115.128 113.353 115.26 112.775 115.516C112.198 115.772 111.681 116.147 111.259 116.616C110.836 117.085 110.517 117.637 110.322 118.238C109.435 120.756 110.57 123.851 111.944 125.979C113.585 128.479 119.215 132.026 119.215 132.035Z" fill="#D53259"/>
<path d="M139.148 107.864C135.371 107.456 130.884 112.634 129.501 115.729C129.377 116.004 127.994 120.402 128.065 120.402H128.144C127.435 121.217 126.673 122.095 125.866 123.062C124.385 124.88 122.736 126.946 121.086 129.313C119.284 131.846 117.629 134.481 116.13 137.205C114.44 140.251 113.025 143.44 111.9 146.737C111.896 146.775 111.896 146.814 111.9 146.852C111.9 145.744 111.9 142.631 111.838 142.419C111.404 139.049 108.584 132.807 104.842 132.115C104.218 132.019 103.581 132.054 102.973 132.22C102.364 132.385 101.796 132.677 101.307 133.076C100.818 133.474 100.418 133.971 100.134 134.535C99.849 135.098 99.6858 135.714 99.6547 136.345C99.4419 139.005 101.375 141.665 103.264 143.385C105.401 145.283 111.315 147.127 111.785 147.278C110.726 150.66 109.891 154.107 109.284 157.599C108.93 159.629 108.619 161.695 108.344 163.761C108.344 162.795 108.344 161.935 108.344 161.82C107.901 158.45 105.081 152.208 101.348 151.516C100.725 151.418 100.087 151.453 99.4776 151.618C98.8681 151.783 98.3002 152.074 97.8108 152.473C97.3214 152.872 96.9216 153.37 96.6374 153.934C96.3531 154.498 96.1909 155.115 96.1611 155.746C95.9395 158.406 97.8813 161.066 99.77 162.786C101.659 164.506 106.704 166.173 108.034 166.59C107.937 167.388 107.83 168.177 107.733 168.975C107.28 172.788 106.846 176.601 106.296 180.316C106.101 181.628 105.871 182.914 105.64 184.2C105.64 183.313 105.64 182.63 105.587 182.515C105.152 179.155 102.333 172.903 98.5996 172.212C97.9758 172.114 97.3383 172.149 96.7288 172.313C96.1193 172.478 95.5514 172.77 95.062 173.169C94.5726 173.568 94.1728 174.065 93.8886 174.629C93.6044 175.193 93.4421 175.811 93.4124 176.441C93.1907 179.101 95.1326 181.761 97.0212 183.482C98.9099 185.202 103.468 186.7 105.046 187.215C104.771 188.527 104.496 189.875 104.159 191.098C103.911 191.985 103.734 192.792 103.45 193.634C103.166 194.477 102.909 195.31 102.643 196.135C102.067 197.695 101.49 199.318 100.87 200.843C100.462 201.898 100.054 202.9 99.6459 203.911C99.8498 202.608 100.204 200.045 100.204 199.824C100.164 196.838 99.3584 193.913 97.8636 191.329C97.874 190.997 97.8532 190.664 97.8015 190.336C97.7227 189.71 97.5129 189.107 97.1859 188.567C96.8588 188.028 96.4218 187.563 95.9032 187.203C95.3846 186.844 94.7961 186.597 94.176 186.48C93.5559 186.363 92.918 186.377 92.304 186.523C88.633 187.498 86.301 193.945 86.0971 197.332C86.0971 197.536 86.2212 199.717 86.3276 201.092C86.1414 200.294 85.9729 199.513 85.769 198.697C85.3877 197.075 84.9532 195.461 84.4921 193.723C84.2439 192.898 83.9956 192.056 83.7384 191.214C83.4813 190.371 83.1444 189.511 82.8517 188.642C82.1246 186.656 81.2912 184.679 80.4045 182.71C81.832 182.364 86.8596 181.088 88.8813 179.536C90.903 177.984 93.0222 175.466 93.0045 172.788C93.0214 172.157 92.9053 171.529 92.6637 170.945C92.4221 170.361 92.0604 169.835 91.6022 169.4C91.144 168.965 90.5994 168.632 90.0038 168.421C89.4083 168.21 88.7751 168.127 88.1453 168.177C84.368 168.594 81.0517 174.615 80.4045 177.931C80.4045 178.144 80.1384 180.591 80.0409 181.921C79.5 180.742 78.968 179.562 78.3828 178.374C76.6892 174.969 74.836 171.582 73.0626 168.195C72.5128 167.157 71.9808 166.111 71.4399 165.074C71.9453 164.958 77.9571 163.566 80.2182 161.828C82.231 160.286 84.3591 157.758 84.3414 155.081C84.3583 154.449 84.2422 153.821 84.0006 153.237C83.759 152.654 83.3974 152.127 82.9391 151.693C82.4809 151.258 81.9363 150.924 81.3408 150.714C80.7452 150.503 80.112 150.42 79.4823 150.47C75.7049 150.887 72.3887 156.898 71.7414 160.223C71.6882 160.472 71.3778 163.983 71.3335 164.888C70.1453 162.591 68.9837 160.303 67.9286 157.989C66.4945 154.876 65.2624 151.675 64.2399 148.404C64.4793 148.351 70.7571 146.923 73.1069 145.141C75.1197 143.598 77.2478 141.08 77.2301 138.393C77.2471 137.762 77.131 137.134 76.8893 136.551C76.6477 135.968 76.2858 135.442 75.8274 135.008C75.369 134.573 74.8243 134.241 74.2288 134.031C73.6332 133.821 73.0002 133.74 72.3709 133.791C68.5936 134.199 65.2773 140.219 64.63 143.545C64.63 143.757 64.3374 146.435 64.2576 147.712H64.0359C63.0754 144.399 62.4108 141.008 62.0497 137.577C61.8369 135.688 61.7394 133.871 61.6862 132.106C62.8832 131.955 68.3542 131.219 70.6153 129.863C72.8764 128.506 75.1818 126.272 75.4567 123.603C75.5414 122.977 75.4938 122.341 75.3169 121.735C75.14 121.129 74.8378 120.567 74.4299 120.086C74.0219 119.604 73.5173 119.214 72.9487 118.94C72.3802 118.666 71.7604 118.514 71.1295 118.495C67.3345 118.495 63.4152 124.108 62.3601 127.362C62.3069 127.54 61.9256 129.393 61.6684 130.741C61.6684 129.943 61.6684 129.118 61.6684 128.347C61.6684 125.474 61.8547 122.849 62.032 120.517C62.1473 119.196 62.2714 117.999 62.4044 116.882C63.5039 116.128 67.902 113.024 69.2497 110.808C70.5975 108.591 71.6527 105.487 70.6685 103.022C70.4575 102.425 70.1228 101.879 69.6862 101.42C69.2496 100.962 68.7209 100.6 68.1349 100.36C67.5489 100.12 66.9187 100.006 66.2857 100.026C65.6526 100.046 65.031 100.2 64.4616 100.478C61.0832 102.251 60.1965 109.016 60.7551 112.368C60.7551 112.661 62.0763 117.094 62.1384 117.059L62.2005 117.006C62.0497 118.079 61.9079 119.231 61.766 120.49C61.5354 122.822 61.296 125.456 61.234 128.347C61.122 131.452 61.196 134.561 61.4556 137.657C61.7238 141.13 62.2994 144.572 63.1758 147.943C63.1796 147.984 63.1796 148.026 63.1758 148.067C62.5729 147.127 60.8172 144.52 60.6576 144.369C58.4409 141.807 52.6773 138.162 49.1305 139.634C48.5565 139.898 48.0443 140.279 47.6271 140.753C47.21 141.227 46.8972 141.784 46.709 142.386C46.5209 142.989 46.4616 143.625 46.5351 144.252C46.6085 144.88 46.8131 145.484 47.1354 146.027C48.43 148.377 51.5689 149.574 54.0339 149.902C56.8625 150.319 62.8123 148.59 63.2911 148.457C64.2725 151.855 65.4781 155.185 66.9 158.423C67.7158 160.321 68.6024 162.21 69.5158 164.081C68.966 163.291 68.4783 162.582 68.3985 162.493C66.1818 159.922 60.4182 156.287 56.8714 157.758C56.2977 158.021 55.7856 158.401 55.3685 158.874C54.9514 159.348 54.6386 159.904 54.4504 160.506C54.2622 161.108 54.2029 161.743 54.2763 162.37C54.3497 162.996 54.5541 163.6 54.8763 164.143C56.1709 166.492 59.3098 167.69 61.7749 168.026C64.2399 168.363 69.4271 167.024 70.766 166.643C71.1296 167.361 71.4754 168.08 71.83 168.798C73.6034 172.229 75.297 175.643 76.8931 179.048C77.4606 180.254 77.966 181.451 78.4803 182.657C78.0015 181.948 77.5936 181.354 77.5138 181.274C75.297 178.702 69.5335 175.067 65.9867 176.539C65.4125 176.802 64.9002 177.183 64.4831 177.657C64.0661 178.132 63.7537 178.689 63.5663 179.292C63.3789 179.895 63.3207 180.531 63.3955 181.158C63.4703 181.785 63.6765 182.39 64.0005 182.932C65.2862 185.282 68.3808 186.479 70.8901 186.807C73.3995 187.135 78.0458 185.92 79.6419 185.494C80.1384 186.736 80.635 187.986 81.0517 189.219C81.3177 190.061 81.637 190.859 81.8586 191.719C82.0803 192.579 82.3286 193.413 82.5591 194.246C82.9493 195.878 83.366 197.545 83.703 199.141C83.9513 200.249 84.1641 201.304 84.3769 202.368C83.836 201.171 82.7099 198.822 82.6035 198.662C80.8301 195.789 75.6163 191.294 71.963 192.233C71.3561 192.406 70.7924 192.705 70.3086 193.11C69.8247 193.515 69.4316 194.018 69.1548 194.585C68.8779 195.152 68.7235 195.771 68.7017 196.401C68.6799 197.032 68.7911 197.66 69.0281 198.245C69.9148 200.772 72.832 202.386 75.235 203.131C77.8951 203.947 83.8094 203.202 84.5453 203.131C84.9 204.904 85.2281 206.616 85.5118 208.238C86.4961 213.833 87.1079 218.524 87.4981 221.84H90.0695V221.619C89.6084 218.276 88.8813 213.505 87.7552 207.83C87.4005 206.057 86.9926 204.124 86.5493 202.164C88.3263 201.451 90.0611 200.637 91.7454 199.726C93.6872 201.828 98.6705 204.293 99.3178 204.612C98.6439 206.279 97.9611 207.893 97.305 209.409C95.0439 214.614 92.9601 218.87 91.4527 221.823H94.2813C95.6734 218.87 97.4646 214.942 99.3799 210.296C100.071 208.611 100.781 206.749 101.49 204.913C102.208 205.064 108.061 206.252 110.783 205.631C113.257 205.073 116.254 203.672 117.362 201.198C117.639 200.632 117.795 200.015 117.818 199.385C117.842 198.755 117.733 198.128 117.499 197.543C117.266 196.958 116.911 196.429 116.46 195.989C116.009 195.55 115.47 195.21 114.879 194.991C111.271 193.776 105.773 197.873 103.76 200.604C103.645 200.763 102.545 202.652 101.871 203.858C102.164 203.095 102.448 202.351 102.758 201.553C103.335 199.983 103.867 198.405 104.434 196.711C104.682 195.878 104.939 195.035 105.188 194.193C105.436 193.351 105.64 192.42 105.871 191.533C106.358 189.476 106.757 187.365 107.103 185.237C108.477 185.734 113.381 187.436 115.97 187.259C118.559 187.082 121.663 186.159 123.135 183.907C123.497 183.39 123.746 182.803 123.866 182.183C123.985 181.563 123.973 180.925 123.83 180.31C123.687 179.696 123.416 179.118 123.035 178.615C122.654 178.111 122.171 177.694 121.618 177.39C118.24 175.617 112.184 178.853 109.781 181.247C109.63 181.398 108.096 183.313 107.28 184.377C107.475 183.092 107.688 181.815 107.848 180.511C108.318 176.743 108.672 172.912 109.045 169.09C109.16 167.92 109.284 166.758 109.408 165.597C109.896 165.774 115.677 167.929 118.524 167.734C121.051 167.556 124.225 166.625 125.688 164.373C126.05 163.856 126.299 163.269 126.419 162.649C126.539 162.029 126.527 161.391 126.384 160.776C126.241 160.162 125.97 159.584 125.589 159.081C125.208 158.577 124.725 158.16 124.172 157.856C120.794 156.083 114.746 159.328 112.335 161.722C112.157 161.899 109.958 164.657 109.426 165.384C109.701 162.813 109.994 160.259 110.384 157.75C110.901 154.361 111.633 151.008 112.574 147.712C112.805 147.801 118.834 150.071 121.742 149.867C124.27 149.689 127.444 148.767 128.907 146.515C129.269 145.999 129.519 145.411 129.639 144.792C129.76 144.173 129.749 143.535 129.607 142.92C129.464 142.306 129.194 141.728 128.814 141.224C128.434 140.721 127.952 140.303 127.4 139.998C124.021 138.224 117.965 141.461 115.562 143.855C115.403 144.015 113.718 146.107 112.946 147.127L112.751 147.029C113.795 143.739 115.13 140.549 116.741 137.497C117.628 135.804 118.515 134.234 119.455 132.736C120.537 133.268 125.493 135.68 128.136 135.786C130.778 135.892 133.926 135.307 135.628 133.241C136.043 132.766 136.354 132.209 136.54 131.606C136.727 131.003 136.785 130.367 136.71 129.741C136.636 129.114 136.431 128.51 136.109 127.967C135.786 127.425 135.354 126.956 134.839 126.591C131.674 124.489 125.298 127.017 122.647 129.127C122.505 129.242 121.166 130.581 120.208 131.556C120.634 130.891 121.095 130.182 121.494 129.552C123.081 127.158 124.686 125.057 126.123 123.213C126.947 122.175 127.71 121.253 128.437 120.393C129.767 120.393 135.149 120.207 137.499 119.098C139.849 117.99 142.42 116.013 142.97 113.388C143.12 112.771 143.138 112.13 143.022 111.506C142.906 110.882 142.66 110.29 142.299 109.768C141.938 109.246 141.47 108.807 140.928 108.479C140.385 108.151 139.778 107.941 139.148 107.864Z" fill="#D53259"/>
<path d="M199.019 246.322C202.087 247.661 209.615 247.492 209.615 247.492C209.615 247.492 208.001 242.571 207.841 242.27C206.192 238.82 200.969 233.119 196.722 233.695C196.02 233.809 195.349 234.07 194.754 234.46C194.159 234.85 193.653 235.362 193.269 235.961C192.885 236.56 192.632 237.233 192.525 237.937C192.419 238.64 192.462 239.358 192.652 240.044C193.344 242.988 196.358 245.178 199.019 246.322Z" fill="#D53259"/>
<path d="M275.062 247.971C275.133 248.016 276.436 242.979 276.481 242.651C277.004 238.856 275.798 231.221 271.941 229.35C271.291 229.059 270.587 228.908 269.874 228.906C269.162 228.905 268.457 229.053 267.806 229.341C267.154 229.63 266.571 230.052 266.093 230.581C265.616 231.109 265.255 231.732 265.033 232.41C264.005 235.247 265.317 238.741 266.869 241.135C268.696 243.981 275.062 247.971 275.062 247.971Z" fill="#D53259"/>
<path d="M297.513 220.714C293.257 220.253 288.194 226.096 286.633 229.581C286.5 229.883 284.94 234.848 285.02 234.848H285.108C284.301 235.735 283.45 236.754 282.537 237.854C280.87 239.902 278.99 242.234 277.146 244.903C275.115 247.749 273.249 250.71 271.56 253.77C269.651 257.203 268.054 260.799 266.789 264.517C266.789 264.561 266.789 264.615 266.745 264.65C266.745 263.4 266.745 259.889 266.683 259.623C266.186 255.827 263.003 248.778 258.791 247.998C258.088 247.889 257.369 247.929 256.682 248.116C255.995 248.302 255.355 248.631 254.803 249.081C254.251 249.53 253.8 250.091 253.479 250.726C253.158 251.362 252.974 252.057 252.939 252.768C252.699 255.783 254.881 258.807 257.018 260.749C259.421 262.894 266.089 264.978 266.621 265.138C265.427 268.956 264.485 272.848 263.801 276.789C263.393 279.086 263.056 281.409 262.737 283.741C262.737 282.65 262.737 281.684 262.684 281.551C262.196 277.756 259.013 270.706 254.801 269.926C254.097 269.816 253.378 269.855 252.691 270.041C252.003 270.227 251.362 270.555 250.81 271.005C250.258 271.455 249.807 272.017 249.486 272.653C249.166 273.289 248.982 273.985 248.949 274.696C248.7 277.711 250.89 280.735 253.019 282.632C255.147 284.53 260.839 286.454 262.338 286.933C262.231 287.82 262.107 288.706 262.001 289.593C261.487 293.893 260.99 298.194 260.378 302.388C260.165 303.869 259.899 305.314 259.633 306.768C259.633 305.802 259.633 304.995 259.58 304.862C259.092 301.067 255.909 294.027 251.697 293.246C250.994 293.137 250.275 293.177 249.588 293.364C248.901 293.55 248.261 293.879 247.71 294.329C247.158 294.779 246.707 295.339 246.386 295.975C246.064 296.61 245.88 297.306 245.845 298.017C245.597 301.031 247.787 304.046 249.915 305.997C252.043 307.948 257.186 309.632 258.968 310.209C258.658 311.69 258.348 313.17 257.975 314.58C257.7 315.547 257.505 316.487 257.177 317.444L256.291 320.255C255.652 322.029 254.996 323.855 254.322 325.575C253.87 326.772 253.435 327.899 252.948 329.033C253.178 327.57 253.577 324.68 253.577 324.44C253.528 321.07 252.612 317.769 250.917 314.855C250.932 314.482 250.911 314.107 250.855 313.738C250.766 313.031 250.529 312.351 250.16 311.741C249.79 311.132 249.297 310.607 248.712 310.2C248.126 309.794 247.462 309.515 246.762 309.382C246.062 309.249 245.342 309.265 244.648 309.429C240.507 310.537 237.883 317.808 237.688 321.63C237.688 321.851 237.821 324.29 237.945 325.859C237.732 324.972 237.537 324.086 237.315 323.199C236.881 321.364 236.428 319.546 235.879 317.595L234.992 314.758C234.726 313.809 234.327 312.833 233.99 311.867C233.174 309.624 232.217 307.433 231.241 305.172C232.837 304.782 238.512 303.337 240.791 301.626C243.07 299.914 245.464 297.041 245.446 294.018C245.465 293.306 245.333 292.598 245.06 291.94C244.788 291.283 244.38 290.69 243.863 290.2C243.346 289.71 242.732 289.334 242.061 289.096C241.39 288.859 240.676 288.765 239.966 288.822C235.701 289.283 231.986 296.075 231.232 299.817C231.188 300.056 230.931 302.805 230.824 304.321C230.213 302.982 229.61 301.661 228.954 300.322C227.047 296.492 224.999 292.67 222.977 288.848C222.356 287.678 221.754 286.498 221.142 285.301C221.718 285.168 228.492 283.599 231.046 281.639C233.316 279.866 235.719 277.055 235.692 274.031C235.712 273.32 235.582 272.612 235.31 271.955C235.038 271.297 234.631 270.704 234.115 270.214C233.599 269.724 232.986 269.348 232.315 269.11C231.644 268.873 230.931 268.779 230.221 268.835C225.956 269.296 222.241 276.089 221.487 279.83C221.425 280.114 221.071 284.078 221.026 285.089C219.687 282.508 218.366 279.919 217.187 277.312C215.559 273.807 214.161 270.199 213.002 266.512C213.268 266.45 220.353 264.845 222.968 262.841C225.229 261.068 227.641 258.248 227.615 255.224C227.634 254.513 227.504 253.805 227.232 253.147C226.959 252.489 226.551 251.896 226.034 251.406C225.517 250.916 224.902 250.542 224.23 250.306C223.559 250.07 222.844 249.978 222.135 250.037C217.879 250.498 214.154 257.282 213.41 261.032C213.356 261.281 213.082 264.295 212.984 265.732H212.745C211.664 261.973 210.928 258.124 210.546 254.231C210.306 252.103 210.191 250.055 210.129 248.024C211.485 247.865 217.648 247.04 220.193 245.497C222.738 243.954 225.345 241.454 225.655 238.448C225.752 237.743 225.7 237.024 225.502 236.34C225.303 235.656 224.963 235.022 224.503 234.478C224.042 233.934 223.473 233.494 222.831 233.185C222.19 232.876 221.49 232.705 220.778 232.685C216.495 232.685 212.071 239.016 210.891 242.651C210.829 242.855 210.404 244.939 210.111 246.455C210.111 245.568 210.067 244.628 210.067 243.795C210.067 240.55 210.28 237.588 210.484 234.928C210.608 233.438 210.75 232.09 210.9 230.831C212.142 229.945 217.107 226.486 218.623 223.986C220.14 221.485 221.328 218.018 220.22 215.208C219.98 214.537 219.603 213.923 219.111 213.408C218.619 212.892 218.025 212.486 217.366 212.215C216.707 211.944 215.998 211.814 215.286 211.835C214.574 211.856 213.874 212.026 213.232 212.335C209.428 214.303 208.426 221.964 209.056 225.742C209.109 226.07 210.546 231.062 210.617 231.062L210.687 231.018C210.519 232.223 210.359 233.518 210.209 234.937C209.943 237.597 209.677 240.541 209.597 243.804C209.477 247.308 209.56 250.816 209.845 254.311C210.151 258.227 210.803 262.109 211.796 265.909C211.807 265.955 211.821 265.999 211.84 266.042C211.166 264.978 209.18 262.079 209.003 261.875C206.493 258.984 199.958 254.861 196.013 256.554C195.366 256.852 194.789 257.283 194.32 257.817C193.85 258.352 193.498 258.98 193.287 259.66C193.075 260.339 193.009 261.056 193.092 261.763C193.175 262.47 193.406 263.151 193.769 263.763C195.223 266.423 198.708 267.718 201.537 268.135C204.729 268.596 211.441 266.654 211.973 266.494C213.081 270.337 214.444 274.102 216.052 277.764C216.939 279.901 217.967 282.021 218.996 284.14C218.384 283.253 217.825 282.446 217.737 282.366C215.236 279.476 208.692 275.353 204.755 277.046C204.107 277.342 203.529 277.771 203.057 278.306C202.586 278.84 202.232 279.468 202.02 280.148C201.808 280.828 201.741 281.545 201.824 282.253C201.907 282.961 202.139 283.643 202.503 284.255C203.957 286.915 207.451 288.219 210.28 288.626C213.108 289.034 218.907 287.5 220.423 287.075L221.62 289.495C223.562 293.37 225.522 297.227 227.322 301.067C227.96 302.415 228.537 303.771 229.095 305.128C228.555 304.33 228.085 303.665 228.005 303.567C225.495 300.677 218.96 296.554 215.015 298.247C214.368 298.545 213.791 298.975 213.322 299.51C212.852 300.045 212.5 300.673 212.289 301.352C212.077 302.032 212.011 302.749 212.094 303.456C212.177 304.162 212.408 304.844 212.771 305.456C214.225 308.116 217.71 309.411 220.539 309.828C223.367 310.244 228.608 308.852 230.417 308.347C230.966 309.748 231.525 311.158 231.995 312.541C232.305 313.498 232.66 314.394 232.882 315.369L233.68 318.225C234.114 320.051 234.566 321.94 234.965 323.74C235.24 324.981 235.48 326.178 235.728 327.375C235.107 326.028 233.848 323.403 233.715 323.19C231.676 319.954 225.841 314.891 221.683 315.946C220.998 316.141 220.362 316.479 219.817 316.936C219.271 317.393 218.828 317.96 218.516 318.6C218.204 319.24 218.031 319.938 218.006 320.649C217.982 321.361 218.108 322.069 218.375 322.729C219.413 325.575 222.658 327.393 225.398 328.235C228.404 329.122 235.063 328.315 235.896 328.235C236.295 330.231 236.668 332.164 236.987 333.999C238.095 340.303 238.76 345.606 239.222 349.339H242.121V349.091C241.598 345.313 240.782 339.94 239.505 333.538C239.115 331.516 238.619 329.362 238.149 327.154C240.154 326.348 242.111 325.427 244.01 324.396C246.2 326.772 251.822 329.548 252.549 329.902C251.786 331.782 251.024 333.609 250.279 335.32C247.725 341.19 245.375 345.961 243.682 349.339H246.9C248.479 346.014 250.491 341.58 252.646 336.304C253.435 334.398 254.233 332.341 255.04 330.231C255.847 330.399 262.444 331.738 265.512 331.046C268.305 330.417 271.719 328.838 272.925 326.081C273.241 325.443 273.42 324.745 273.449 324.034C273.478 323.322 273.357 322.612 273.093 321.951C272.83 321.289 272.43 320.69 271.92 320.193C271.409 319.697 270.8 319.313 270.132 319.067C266.062 317.701 259.864 322.321 257.594 325.398C257.461 325.584 256.228 327.712 255.466 329.069C255.794 328.182 256.113 327.366 256.432 326.471C257.089 324.698 257.683 322.924 258.33 321.009C258.605 320.069 258.889 319.129 259.172 318.171C259.456 317.214 259.678 316.194 259.935 315.201C260.493 312.887 260.937 310.501 261.336 308.107C262.888 308.675 268.429 310.599 271.276 310.395C274.122 310.191 277.704 309.145 279.354 306.609C279.763 306.026 280.046 305.364 280.182 304.665C280.319 303.966 280.306 303.247 280.145 302.553C279.985 301.859 279.679 301.207 279.25 300.639C278.82 300.072 278.275 299.601 277.651 299.258C273.838 297.298 267.011 300.916 264.351 303.621C264.173 303.78 262.444 305.944 261.522 307.167C261.753 305.722 261.983 304.277 262.169 302.805C262.692 298.558 263.056 294.239 263.517 289.93C263.641 288.618 263.783 287.27 263.925 285.984C264.475 286.197 271.019 288.644 274.202 288.396C277.057 288.201 280.63 287.146 282.28 284.619C282.69 284.036 282.972 283.373 283.109 282.673C283.245 281.973 283.233 281.253 283.072 280.559C282.911 279.864 282.606 279.211 282.176 278.643C281.746 278.074 281.202 277.603 280.577 277.259C276.773 275.299 269.937 278.917 267.277 281.622C267.073 281.826 264.617 284.929 263.996 285.745C264.297 282.854 264.634 279.972 265.078 277.144C265.653 273.323 266.477 269.543 267.543 265.829C267.8 265.927 274.636 268.49 277.882 268.259C280.728 268.055 284.31 267.009 285.96 264.473C286.368 263.89 286.649 263.228 286.785 262.529C286.92 261.83 286.908 261.111 286.747 260.418C286.586 259.725 286.282 259.073 285.853 258.505C285.424 257.937 284.88 257.466 284.257 257.122C280.444 255.154 273.617 258.78 270.903 261.476C270.726 261.653 268.837 264.021 267.96 265.164L267.747 265.049C268.919 261.34 270.421 257.744 272.233 254.302C273.209 252.396 274.246 250.631 275.301 248.929C276.516 249.541 282.111 252.254 285.055 252.378C287.999 252.502 291.581 251.837 293.496 249.505C293.966 248.97 294.319 248.342 294.53 247.662C294.741 246.981 294.807 246.264 294.724 245.557C294.64 244.85 294.409 244.168 294.045 243.556C293.68 242.943 293.192 242.415 292.61 242.004C289.063 239.636 281.854 242.483 278.866 244.868C278.697 245.001 277.19 246.499 276.108 247.608C276.596 246.854 277.084 246.056 277.562 245.338C279.336 242.678 281.162 240.284 282.776 238.2C283.707 237.029 284.55 235.983 285.392 235.017C286.899 235.017 292.956 234.804 295.616 233.562C298.276 232.321 301.158 230.078 301.778 227.116C301.977 226.413 302.021 225.675 301.907 224.952C301.793 224.23 301.525 223.542 301.119 222.933C300.714 222.325 300.182 221.812 299.559 221.429C298.937 221.046 298.239 220.802 297.513 220.714Z" fill="#D53259"/>
<path d="M53.5994 265.626C56.3925 266.512 62.9364 265.759 62.9364 265.75C62.9364 265.741 61.1098 261.6 60.9679 261.316C59.1945 258.443 54.2024 253.912 50.5492 254.772C49.945 254.93 49.3809 255.214 48.894 255.605C48.4071 255.996 48.0082 256.485 47.7236 257.041C47.439 257.597 47.275 258.207 47.2424 258.83C47.2098 259.454 47.3093 260.078 47.5344 260.66C48.3679 263.196 51.1787 264.854 53.5994 265.626Z" fill="#D53259"/>
<path d="M120.031 260.633C120.093 260.633 120.803 256.2 120.82 255.872C120.953 252.52 119.26 245.967 115.731 244.673C115.14 244.472 114.514 244.399 113.893 244.457C113.273 244.515 112.671 244.703 112.128 245.009C111.585 245.316 111.113 245.733 110.742 246.234C110.371 246.735 110.11 247.309 109.976 247.918C109.32 250.489 110.756 253.416 112.308 255.375C114.135 257.681 120.031 260.633 120.031 260.633Z" fill="#D53259"/>
<path d="M137.304 234.972C133.553 234.972 129.625 240.452 128.57 243.635C128.473 243.91 127.533 248.37 127.604 248.362H127.683C127.054 249.248 126.398 250.135 125.697 251.199C124.411 253.132 122.984 255.313 121.592 257.805C120.057 260.464 118.68 263.212 117.469 266.034C116.103 269.183 115.017 272.447 114.223 275.787V275.911C114.135 274.812 113.789 271.762 113.736 271.531C112.991 268.259 109.621 262.389 105.879 262.061C105.256 262.023 104.632 262.117 104.047 262.336C103.463 262.556 102.931 262.897 102.487 263.336C102.044 263.776 101.698 264.304 101.473 264.887C101.247 265.469 101.147 266.093 101.18 266.716C101.224 269.376 103.388 271.815 105.401 273.296C107.679 274.963 113.673 276.213 114.152 276.31C113.435 279.735 112.943 283.204 112.68 286.694C112.512 288.733 112.414 290.781 112.343 292.847C112.237 291.899 112.131 291.074 112.104 290.941C111.359 287.669 107.99 281.799 104.248 281.471C103.625 281.433 103 281.527 102.416 281.746C101.831 281.966 101.299 282.307 100.856 282.746C100.412 283.186 100.066 283.714 99.841 284.297C99.6157 284.879 99.516 285.503 99.5484 286.126C99.5927 288.786 101.756 291.225 103.769 292.706C105.782 294.186 110.863 295.366 112.264 295.667C112.264 296.456 112.21 297.245 112.193 298.035C112.104 301.83 112.042 305.616 111.856 309.322C111.794 310.635 111.687 311.92 111.581 313.206C111.483 312.364 111.404 311.654 111.377 311.548C110.623 308.285 107.254 302.415 103.521 302.087C102.897 302.049 102.273 302.142 101.688 302.362C101.104 302.582 100.572 302.923 100.129 303.362C99.685 303.802 99.3392 304.33 99.1139 304.912C98.8886 305.495 98.7889 306.118 98.8213 306.742C98.8213 309.402 101.02 311.841 103.042 313.321C105.064 314.802 109.683 315.866 111.288 316.221C111.138 317.542 110.996 318.881 110.792 320.122C110.632 321.009 110.543 321.825 110.34 322.685C110.136 323.545 109.967 324.378 109.781 325.212C109.373 326.808 108.956 328.466 108.513 330.009C108.211 331.091 107.91 332.111 107.626 333.139C107.706 331.845 107.804 329.291 107.786 329.078C107.461 326.146 106.389 323.347 104.673 320.947C104.656 320.62 104.602 320.296 104.514 319.98C104.378 319.372 104.115 318.799 103.743 318.299C103.371 317.799 102.897 317.383 102.353 317.079C101.809 316.774 101.207 316.588 100.587 316.532C99.9657 316.475 99.34 316.551 98.7503 316.753C95.2035 318.065 93.5543 324.618 93.705 327.97C93.705 328.165 94.0508 330.302 94.2902 331.641C94.0331 330.869 93.7848 330.124 93.5099 329.335C92.9779 327.775 92.4015 326.241 91.7808 324.574C91.4616 323.787 91.1336 322.989 90.7966 322.179C90.4863 321.373 90.0518 320.557 89.6794 319.741C88.7927 317.852 87.773 315.99 86.7178 314.137C88.0833 313.667 92.9247 311.92 94.6981 310.209C96.4715 308.498 98.3779 305.776 98.103 303.177C98.0606 302.555 97.8874 301.949 97.5947 301.398C97.3019 300.847 96.8962 300.364 96.4042 299.981C95.9121 299.598 95.3446 299.323 94.739 299.174C94.1333 299.025 93.503 299.005 92.8892 299.116C89.2183 299.879 86.567 306.104 86.2124 309.438C86.2124 309.65 86.2124 312.098 86.2124 313.401C85.5739 312.284 84.9355 311.176 84.2439 310.076C82.2665 306.893 80.1562 303.727 78.037 300.571C77.3985 299.604 76.7779 298.629 76.1394 297.662C76.6271 297.494 82.4084 295.552 84.4656 293.628C86.301 291.925 88.1542 289.239 87.8794 286.596C87.837 285.974 87.6637 285.367 87.371 284.817C87.0782 284.266 86.6726 283.783 86.1805 283.4C85.6884 283.017 85.121 282.741 84.5153 282.592C83.9096 282.443 83.2793 282.424 82.6656 282.535C78.9857 283.298 76.3434 289.531 75.9798 292.865C75.9798 293.113 75.9798 296.598 75.9798 297.485C74.5966 295.339 73.2311 293.202 71.9719 291.03C70.2596 288.11 68.7372 285.083 67.4143 281.968C67.636 281.888 73.6833 279.893 75.7847 277.924C77.6202 276.213 79.4734 273.491 79.1986 270.893C79.1573 270.27 78.985 269.662 78.6927 269.11C78.4005 268.559 77.995 268.075 77.5028 267.69C77.0106 267.306 76.4427 267.03 75.8365 266.881C75.2302 266.731 74.5992 266.711 73.9847 266.823C70.3138 267.594 67.6626 273.819 67.3079 277.153C67.3079 277.374 67.3079 280.026 67.3079 281.285L67.0951 281.329C65.8494 278.171 64.8908 274.906 64.231 271.575C63.8409 269.74 63.566 267.958 63.3443 266.255C64.5148 265.998 69.8173 264.766 71.9099 263.196C74.0025 261.627 76.0508 259.233 76.0685 256.59C76.0961 255.976 75.9956 255.362 75.7734 254.789C75.5511 254.215 75.2119 253.694 74.7774 253.259C74.3429 252.824 73.8226 252.484 73.2496 252.26C72.6765 252.037 72.0633 251.935 71.4488 251.962C67.7158 252.325 64.3552 258.222 63.6724 261.494C63.6724 261.671 63.433 263.524 63.3089 264.881C63.2202 264.092 63.1138 263.285 63.0429 262.54C62.7768 259.711 62.7059 257.104 62.6616 254.799C62.6616 253.487 62.6616 252.299 62.6616 251.19C63.6724 250.303 67.698 246.872 68.8153 244.567C69.9325 242.261 70.6685 239.14 69.4626 236.772C69.1986 236.207 68.8181 235.703 68.3461 235.295C67.8741 234.887 67.3212 234.583 66.7236 234.403C66.126 234.223 65.4971 234.171 64.8781 234.251C64.2591 234.331 63.6639 234.54 63.1315 234.866C59.9837 236.905 59.7532 243.671 60.6222 246.907C60.702 247.191 62.3956 251.43 62.3956 251.385L62.4576 251.332C62.4576 252.405 62.3778 253.549 62.3601 254.799C62.3601 257.113 62.3601 259.72 62.5818 262.567C62.7725 265.633 63.1426 268.685 63.6901 271.708C64.2765 275.095 65.1668 278.422 66.3502 281.648C66.3502 281.693 66.3502 281.728 66.3946 281.764C65.7207 280.877 63.7345 278.536 63.5749 278.376C61.1453 276.062 55.098 273.056 51.7995 274.83C51.2591 275.142 50.7907 275.565 50.425 276.07C50.0593 276.576 49.8045 277.154 49.6773 277.765C49.5501 278.376 49.5533 279.007 49.6868 279.616C49.8202 280.226 50.0809 280.801 50.4517 281.303C51.9413 283.484 55.098 284.335 57.5985 284.459C60.4182 284.592 66.102 282.331 66.5542 282.145C67.843 285.401 69.3478 288.568 71.0586 291.624C72.0429 293.397 73.0892 295.171 74.1621 296.944C73.5591 296.217 73.0094 295.57 72.9207 295.481C70.4911 293.175 64.4438 290.161 61.1453 291.934C60.6049 292.246 60.1366 292.669 59.7709 293.175C59.4052 293.681 59.1504 294.258 59.0232 294.869C58.8959 295.48 58.8991 296.111 59.0326 296.721C59.166 297.33 59.4267 297.905 59.7975 298.407C61.2872 300.597 64.4438 301.44 66.9443 301.564C69.4448 301.688 74.366 299.852 75.6517 299.347C76.0774 300.021 76.4852 300.695 76.9109 301.36C78.9325 304.578 80.9631 307.771 82.8606 310.963C83.5257 312.089 84.1463 313.224 84.767 314.35C84.2262 313.703 83.7651 313.162 83.6853 313.091C81.2557 310.776 75.2084 307.771 71.9099 309.544C71.3695 309.856 70.9011 310.279 70.5354 310.785C70.1697 311.291 69.9149 311.868 69.7877 312.479C69.6605 313.09 69.6637 313.721 69.7971 314.331C69.9306 314.94 70.1912 315.515 70.5621 316.017C72.0517 318.198 75.2084 319.049 77.7089 319.165C80.2094 319.28 84.6518 317.631 86.1858 317.045C86.7887 318.225 87.3917 319.404 87.9592 320.592C88.305 321.399 88.6863 322.153 88.9877 322.978L89.9542 325.292C90.4863 326.852 91.0538 328.457 91.5414 329.991C91.8873 331.055 92.1976 332.075 92.5168 333.104C91.8606 331.978 90.5395 329.796 90.4065 329.628C88.3582 326.968 82.834 323.057 79.305 324.308C78.7216 324.534 78.1929 324.881 77.7534 325.327C77.3139 325.772 76.9737 326.305 76.7551 326.892C76.5365 327.478 76.4445 328.104 76.4851 328.728C76.5257 329.353 76.698 329.961 76.9907 330.514C78.1345 332.9 81.1227 334.212 83.5789 334.717C86.239 335.258 92.0203 333.964 92.7296 333.831C93.2439 335.533 93.7316 337.2 94.1661 338.77C95.6735 344.17 96.7198 348.727 97.4114 351.955L99.9474 351.707L99.8942 351.494C99.1227 348.249 97.9523 343.629 96.3474 338.149C95.8331 336.42 95.2478 334.602 94.6272 332.705C96.3024 331.829 97.9276 330.861 99.4951 329.805C101.614 331.685 106.748 333.636 107.413 333.884C106.908 335.586 106.394 337.245 105.888 338.796C104.115 344.116 102.519 348.55 101.322 351.574L104.097 351.308C105.188 348.275 106.571 344.214 108.007 339.461C108.531 337.732 109.054 335.914 109.577 333.955C110.295 334.035 116.156 334.646 118.781 333.786C121.157 332.997 123.968 331.339 124.819 328.83C125.043 328.247 125.14 327.623 125.106 326.999C125.071 326.376 124.906 325.766 124.619 325.211C124.333 324.656 123.933 324.168 123.445 323.779C122.956 323.389 122.392 323.107 121.787 322.951C118.134 322.109 113.115 326.657 111.395 329.53C111.297 329.699 110.402 331.667 109.852 332.917C110.065 332.128 110.277 331.375 110.481 330.568C110.898 328.972 111.262 327.367 111.67 325.638C111.829 324.804 111.998 323.953 112.166 323.093C112.335 322.233 112.441 321.319 112.583 320.433C112.867 318.367 113.053 316.256 113.195 314.128C114.596 314.483 119.579 315.698 122.062 315.281C124.544 314.864 127.559 313.649 128.783 311.3C129.092 310.757 129.282 310.155 129.342 309.533C129.402 308.912 129.331 308.285 129.131 307.693C128.932 307.101 128.61 306.558 128.186 306.099C127.763 305.64 127.247 305.276 126.673 305.031C123.188 303.639 117.54 307.372 115.403 309.961C115.27 310.12 113.948 312.142 113.239 313.268C113.319 311.991 113.399 310.706 113.434 309.411C113.532 305.66 113.514 301.865 113.523 298.079C113.523 296.917 113.523 295.756 113.523 294.603C114.019 294.736 119.916 296.297 122.691 295.836C125.156 295.419 128.189 294.204 129.412 291.854C129.721 291.312 129.912 290.71 129.972 290.088C130.032 289.466 129.96 288.839 129.761 288.247C129.562 287.655 129.24 287.112 128.816 286.654C128.392 286.195 127.876 285.831 127.302 285.585C123.817 284.193 118.169 287.926 116.032 290.515C115.873 290.71 113.975 293.628 113.523 294.39C113.523 291.837 113.594 289.301 113.744 286.8C113.922 283.417 114.319 280.05 114.933 276.718C115.172 276.78 121.308 278.492 124.154 277.969C126.619 277.552 129.652 276.337 130.876 273.987C131.185 273.445 131.376 272.844 131.436 272.222C131.497 271.601 131.426 270.974 131.227 270.383C131.029 269.791 130.708 269.248 130.285 268.788C129.862 268.329 129.347 267.965 128.774 267.718C125.28 266.326 119.641 270.059 117.504 272.648C117.362 272.817 115.908 275.034 115.243 276.106L115.048 276.027C115.756 272.692 116.762 269.428 118.054 266.273C118.745 264.5 119.499 262.895 120.271 261.325C121.379 261.751 126.477 263.648 129.138 263.498C131.798 263.347 134.786 262.487 136.231 260.279C136.597 259.774 136.852 259.198 136.98 258.588C137.107 257.978 137.105 257.347 136.973 256.738C136.841 256.129 136.582 255.555 136.212 255.052C135.843 254.55 135.372 254.132 134.83 253.824C131.514 252.05 125.493 255.145 123.081 257.477C122.948 257.61 121.76 259.046 120.918 260.137C121.273 259.436 121.627 258.701 121.991 258.036C123.321 255.535 124.651 253.318 125.937 251.367C126.646 250.268 127.311 249.284 127.941 248.37C129.253 248.22 134.52 247.546 136.728 246.242C138.936 244.939 141.268 242.74 141.56 240.106C141.66 239.483 141.626 238.845 141.46 238.236C141.293 237.627 140.999 237.061 140.596 236.575C140.193 236.089 139.691 235.694 139.123 235.418C138.555 235.142 137.935 234.99 137.304 234.972Z" fill="#D53259"/>
<path d="M243.097 32.9907H101.18C94.0693 32.9907 88.3051 38.755 88.3051 45.8656V347.309C88.3051 354.419 94.0693 360.184 101.18 360.184H243.097C250.207 360.184 255.971 354.419 255.971 347.309V45.8656C255.971 38.755 250.207 32.9907 243.097 32.9907Z" fill="#263238"/>
<path d="M177.232 349.543C177.234 348.415 176.901 347.312 176.276 346.373C175.65 345.434 174.761 344.702 173.719 344.269C172.677 343.836 171.531 343.722 170.424 343.941C169.317 344.16 168.301 344.702 167.502 345.499C166.704 346.296 166.16 347.312 165.94 348.418C165.719 349.525 165.831 350.672 166.262 351.714C166.694 352.756 167.425 353.647 168.362 354.274C169.3 354.901 170.403 355.236 171.531 355.236C173.041 355.236 174.49 354.636 175.559 353.569C176.628 352.501 177.23 351.053 177.232 349.543Z" stroke="white" stroke-linecap="round" stroke-linejoin="round"/>
<path opacity="0.3" d="M193.84 32.9907H101.18C97.7653 32.9907 94.4905 34.3472 92.076 36.7617C89.6615 39.1762 88.3051 42.451 88.3051 45.8656V302.122L193.84 32.9907Z" fill="white"/>
<path d="M248.514 55.2114H95.7622V340.765H248.514V55.2114Z" fill="white" stroke="#263238" stroke-linecap="round" stroke-linejoin="round"/>
<path d="M255.422 374.761C255.422 378.308 219.164 381.172 174.439 381.172C129.714 381.172 93.5011 378.299 93.5011 374.761C93.5011 371.223 129.758 368.359 174.484 368.359C219.209 368.359 255.422 371.223 255.422 374.761Z" fill="#263238"/>
<path fill-rule="evenodd" clip-rule="evenodd" d="M172.827 129.071C185.884 130.558 184.177 153.678 195.464 160.379C206.479 166.919 225.293 154.627 233.024 164.812C240.311 174.412 225.101 187.369 225.082 199.4C225.064 211.404 236.81 222.566 232.92 233.928C229.076 245.157 217.372 253.694 205.69 256.048C194.267 258.349 184.453 245.222 172.827 246.036C159.762 246.949 150.138 262.758 137.184 260.839C124.484 258.957 110.837 249.002 108.299 236.476C105.57 223.005 122.331 212.932 124.738 199.4C126.552 189.207 115.638 178.47 120.268 169.201C124.851 160.027 138.82 161.096 146.987 154.86C156.833 147.343 160.497 127.668 172.827 129.071Z" fill="#CECECE" fill-opacity="0.5"/>
<path d="M163.885 146.858C161.671 148.669 160.199 151.23 159.749 154.055C159.563 154.926 159.175 155.742 158.615 156.435C158.08 157.155 157.38 157.738 156.575 158.135L152.099 160.288C148.51 162.052 145.326 164.541 142.749 167.598C134.815 177.062 134.815 181.312 134.815 197.462C134.815 204.772 127.052 211.402 125.012 217.975C123.765 221.885 123.085 230.725 133.399 230.725H210.352C211.859 230.791 213.359 230.479 214.715 229.818C216.067 229.145 217.234 228.154 218.115 226.928C218.958 225.696 219.484 224.276 219.645 222.792C219.773 221.28 219.52 219.76 218.909 218.372C216.869 212.195 208.765 204.828 208.765 197.518V185.448" stroke="#263238" stroke-width="4" stroke-linecap="round" stroke-linejoin="round"/>
<path d="M190.292 230.725C190.309 233.145 189.867 235.547 188.989 237.808C188.039 240.047 186.673 242.085 184.965 243.815C183.238 245.548 181.177 246.913 178.908 247.828C176.639 248.744 174.208 249.191 171.762 249.142C169.311 249.157 166.882 248.675 164.622 247.725C160.091 245.829 156.488 242.226 154.592 237.695C153.703 235.48 153.26 233.112 153.289 230.725M161.505 180.575H185.532C185.743 180.573 185.949 180.634 186.126 180.748C186.303 180.863 186.442 181.027 186.527 181.22C186.611 181.413 186.637 181.627 186.601 181.834C186.565 182.042 186.469 182.235 186.325 182.388L163.319 205.395C163.211 205.51 163.13 205.647 163.081 205.796C163.033 205.946 163.017 206.104 163.036 206.26C163.055 206.416 163.108 206.566 163.191 206.7C163.274 206.833 163.385 206.947 163.517 207.033C163.696 207.143 163.902 207.202 164.112 207.203H188.139M183.889 147.935H199.132C199.214 147.937 199.296 147.957 199.37 147.993C199.444 148.029 199.509 148.082 199.561 148.146C199.613 148.21 199.65 148.285 199.67 148.365C199.689 148.445 199.692 148.528 199.676 148.609C199.655 148.716 199.604 148.814 199.529 148.893L184.852 163.569C184.794 163.629 184.749 163.7 184.721 163.778C184.693 163.857 184.683 163.94 184.691 164.023C184.699 164.106 184.726 164.186 184.768 164.257C184.811 164.328 184.868 164.39 184.937 164.436C185.029 164.5 185.137 164.536 185.249 164.538H200.322" stroke="#263238" stroke-width="4" stroke-linecap="round" stroke-linejoin="round"/>
<path d="M342.354 381.163C375.708 381.163 402.747 377.272 402.747 372.473C402.747 367.674 375.708 363.783 342.354 363.783C309 363.783 281.961 367.674 281.961 372.473C281.961 377.272 309 381.163 342.354 381.163Z" fill="#263238"/>
<path d="M358.625 354.216C358.625 354.216 353.606 361.611 352.019 362.932C350.432 364.253 343.835 367.153 343.569 368.252C343.303 369.352 342.779 370.097 343.835 370.912C344.89 371.728 357.57 371.968 359.946 371.968C362.322 371.968 363.91 369.591 364.965 368.793C366.02 367.995 369.194 365.628 371.039 364.307C372.883 362.985 378.434 359.811 378.7 357.967C378.966 356.122 371.606 348.984 371.606 348.984L358.625 354.216Z" fill="#D53259" stroke="#263238" stroke-linecap="round" stroke-linejoin="round"/>
<path d="M343.808 370.859C344.863 371.649 357.543 371.915 359.919 371.915C362.296 371.915 363.883 369.538 364.938 368.74C365.993 367.942 369.168 365.575 371.012 364.253C372.856 362.932 378.407 359.758 378.673 357.914C378.771 357.249 377.884 355.918 376.713 354.473C374.728 356.338 372.909 358.374 371.278 360.556C368.902 363.987 362.296 368.217 358.598 368.474C354.901 368.731 343.524 368.217 343.524 368.217C343.276 369.272 342.753 370.061 343.808 370.859Z" fill="white" stroke="#263238" stroke-linecap="round" stroke-linejoin="round"/>
<path d="M313.962 249.612C313.962 249.612 317.916 262.549 321.357 272.852C324.797 283.156 331.66 302.708 334.826 307.983C337.991 313.259 347.506 329.646 350.148 336.251C352.79 342.857 357.809 352.895 357.809 352.895L371.039 346.289C371.039 346.289 366.552 332.82 364.965 325.948C363.378 319.076 361.533 311.424 358.625 307.194C356.682 304.42 354.565 301.772 352.285 299.267L345.422 267.834L338.55 240.346C338.55 240.346 320.302 240.098 313.962 249.612Z" fill="#263238" stroke="#263238" stroke-linecap="round" stroke-linejoin="round"/>
<path d="M354.378 350.776C354.378 350.776 356.222 354.216 356.754 355.271C357.286 356.326 362.562 356.592 364.938 355.537C367.315 354.482 373.92 351.042 373.92 349.454C373.92 347.867 371.81 343.913 371.012 342.591C370.214 341.27 367.315 342.325 365.47 343.123C363.626 343.921 356.754 347.344 355.956 347.61C355.635 347.7 355.336 347.856 355.08 348.068C354.823 348.281 354.613 348.544 354.464 348.843C354.316 349.141 354.231 349.467 354.216 349.8C354.201 350.133 354.256 350.465 354.378 350.776Z" fill="white" stroke="#263238" stroke-linecap="round" stroke-linejoin="round"/>
<path d="M307.622 358.969C306.02 360.657 304.236 362.162 302.302 363.455C298.861 365.841 290.677 368.217 287.769 368.776C284.86 369.334 284.869 370.895 284.869 372.473C284.869 374.052 294.906 376.437 299.943 377.235C304.979 378.033 318.431 377.758 319.752 376.703C321.073 375.648 321.073 365.078 321.073 364.023C321.073 362.968 307.622 358.969 307.622 358.969Z" fill="#D53259" stroke="#263238" stroke-linecap="round" stroke-linejoin="round"/>
<path d="M319.77 376.667C320.204 376.321 320.488 374.956 320.656 373.244C315.819 373.992 310.929 374.354 306.035 374.326C298.926 374.348 291.891 372.893 285.374 370.052C284.979 370.794 284.815 371.637 284.904 372.473C284.904 374.06 294.942 376.437 299.978 377.235C305.015 378.033 318.448 377.722 319.77 376.667Z" fill="white" stroke="#263238" stroke-linecap="round" stroke-linejoin="round"/>
<path d="M320.036 249.869C320.036 249.869 317.916 269.421 317.375 278.926C316.835 288.432 315.256 296.891 315.256 301.094C315.256 305.297 311.559 331.738 311.559 336.225C311.559 340.712 308.393 354.189 308.393 354.189C308.393 354.189 308.393 354.713 311.302 355.511C314.21 356.309 318.963 357.355 318.963 357.355H321.383C321.383 357.355 324.283 348.639 327.723 340.712C331.164 332.784 334.063 327.243 334.817 319.315C335.571 311.388 334.817 301.883 335.872 300.039C336.927 298.194 348.818 268.073 350.405 265.457C351.992 262.841 355.158 256.209 355.158 256.209C355.158 256.209 358.855 251.988 358.589 244.327C358.323 236.666 354.369 237.189 346.965 237.189C339.561 237.189 330.33 240.364 327.156 242.509C323.981 244.655 320.036 249.869 320.036 249.869Z" fill="#263238" stroke="#263238" stroke-linecap="round" stroke-linejoin="round"/>
<path d="M322.146 345.704C321.445 347.92 320.958 349.357 320.958 349.357" stroke="#636363" stroke-linecap="round" stroke-linejoin="round"/>
<path d="M328.832 297.591C328.832 299.098 328.832 300.251 328.832 300.561C328.832 301.554 327.847 301.882 327.519 304.188C327.191 306.493 329.825 310.12 328.832 310.785C327.839 311.45 326.854 312.097 326.854 313.747C327.235 317.914 327.235 322.108 326.854 326.276C326.473 330.709 324.505 337.865 322.935 343.034" stroke="#636363" stroke-linecap="round" stroke-linejoin="round"/>
<path d="M342.806 252.99C338.656 263.631 330.827 283.847 329.86 287.705C329.367 289.861 329.07 292.057 328.974 294.266" stroke="#636363" stroke-linecap="round" stroke-linejoin="round"/>
<path d="M345.324 246.491L343.985 249.913" stroke="#636363" stroke-linecap="round" stroke-linejoin="round"/>
<path d="M307.09 351.272C307.09 351.272 315.274 354.18 317.393 354.97C319.512 355.759 323.201 355.759 323.201 357.346C323.201 358.933 323.467 364.484 322.146 364.741C320.825 364.998 313.164 363.42 310.521 362.365C307.879 361.309 306.034 361.309 305.502 360.254C304.97 359.199 305.768 356.291 305.768 354.704C305.911 353.466 306.366 352.286 307.09 351.272Z" fill="white" stroke="#263238" stroke-linecap="round" stroke-linejoin="round"/>
<path d="M331.226 145.557C331.226 145.557 317.925 148.74 316.702 150.133C315.478 151.525 307.347 165.659 306.753 166.253C305.382 167.49 303.918 168.62 302.372 169.631C301.372 170.398 300.612 171.435 300.182 172.619C299.987 173.417 299.393 174.606 296.999 178.826C294.605 183.047 289.019 190.167 290.633 190.566C292.246 190.965 297.398 189.369 301.778 188.376C306.159 187.383 311.727 182.799 311.727 182.799C311.727 182.799 310.743 194.734 310.743 201.898C310.743 209.063 310.938 232.933 310.938 237.313C310.938 241.693 310.539 246.074 310.938 247.466C311.337 248.858 314.121 253.229 314.121 253.229L316.311 250.649L318.085 254.426C318.085 254.426 320.47 251.438 330.419 248.06C340.368 244.682 344.748 243.281 347.337 243.485C349.926 243.688 364.051 251.642 364.849 252.041C365.647 252.44 364.051 236.914 364.051 228.162C364.051 219.411 363.457 203.884 363.457 203.884C363.457 203.884 370.223 171.076 371.012 163.894C371.801 156.712 368.228 150.159 366.836 148.173C365.444 146.187 348.534 141.603 348.534 141.603L331.226 145.557Z" fill="#D53259" stroke="#263238" stroke-linecap="round" stroke-linejoin="round"/>
<path d="M311.727 182.799C311.727 182.799 312.321 172.451 314.511 166.084" stroke="#263238" stroke-miterlimit="10" stroke-linecap="round"/>
<path d="M300.386 174.438C300.386 174.438 301.778 182.196 301.583 184.581C301.388 186.967 302.576 185.184 302.576 179.607" stroke="#263238" stroke-miterlimit="10" stroke-linecap="round"/>
<path d="M330.543 152.27C330.543 152.27 325.223 169.862 323.449 178.613" stroke="#263238" stroke-miterlimit="10" stroke-linecap="round"/>
<path d="M318.892 207.272L318.094 217.416" stroke="#263238" stroke-miterlimit="10" stroke-linecap="round"/>
<path d="M317.695 224.775C317.695 224.775 316.107 240.895 316.506 248.255" stroke="#263238" stroke-miterlimit="10" stroke-linecap="round"/>
<path d="M296.405 171.449C295.645 174.19 294.363 176.758 292.628 179.012C289.639 182.994 288.513 183.588 286.722 183.792C284.931 183.996 282.679 181.008 282.076 179.81C281.473 178.613 280.888 179.81 281.482 183.792C282.076 187.773 287.254 191.772 290.038 191.772C292.823 191.772 297.203 186.204 298.196 183.419C299.18 180.611 299.519 177.616 299.189 174.659C298.79 172.451 298.79 170.66 296.405 171.449Z" fill="#D53259" stroke="#263238" stroke-linecap="round" stroke-linejoin="round"/>
<path d="M300.182 140.415C300.182 140.415 304.164 136.628 304.962 135.635C305.76 134.642 306.558 130.067 306.735 128.675C306.912 127.283 309.289 123.62 309.306 122.964C309.324 122.308 307.932 121.705 306.93 122.902C306.178 123.973 305.514 125.103 304.944 126.281C304.545 126.884 303.357 126.68 303.357 126.68C303.357 126.68 303.481 125.616 303.685 124.427C303.889 123.239 306.088 119.887 306.886 118.69C307.684 117.493 306.992 114.257 305.174 116.669C303.357 119.081 299.774 123.496 299.774 123.496C299.774 123.496 294.002 130.661 293.204 132.452C292.406 134.243 292.406 137.231 292.406 139.022C292.406 140.814 293.009 140.016 292.007 143.199C291.005 146.382 285.445 160.108 283.06 166.085C280.675 172.061 279.877 176.424 281.065 178.818C282.253 181.212 285.844 185.025 287.831 184.581C289.817 184.138 294.8 177.426 295.811 175.031C296.583 172.934 296.921 170.702 296.804 168.47C296.804 166.696 295.811 155.169 296.804 150.957C297.797 146.746 300.182 140.415 300.182 140.415Z" fill="white" stroke="#263238" stroke-linecap="round" stroke-linejoin="round"/>
<path d="M294.614 133.649L295.607 132.922C296.097 133.478 296.672 133.954 297.309 134.332C297.861 134.53 298.459 134.558 299.026 134.413C299.594 134.267 300.105 133.955 300.493 133.516L300.785 133.046L302.372 131.273L303.862 129.641C304.032 129.452 304.162 129.23 304.245 128.989C304.327 128.749 304.36 128.494 304.341 128.24C304.311 127.384 304.06 126.55 303.614 125.819C303.179 125.243 301.583 121.528 300.581 121.324C299.579 121.12 298.4 123.514 298.4 123.514C297.416 124.087 296.539 124.829 295.811 125.704C295.49 126.207 295.222 126.742 295.013 127.3C295.013 127.3 292.424 128.692 292.229 130.483C292.203 132.743 292.339 135.001 292.636 137.24" fill="white"/>
<path d="M294.614 133.649L295.607 132.922C296.097 133.478 296.672 133.954 297.309 134.332C297.861 134.53 298.459 134.558 299.026 134.413C299.594 134.267 300.105 133.955 300.493 133.516L300.785 133.046L302.372 131.273L303.862 129.641C304.032 129.452 304.162 129.23 304.245 128.989C304.327 128.749 304.36 128.494 304.341 128.24C304.311 127.384 304.06 126.55 303.614 125.819C303.179 125.243 301.583 121.528 300.581 121.324C299.579 121.12 298.4 123.514 298.4 123.514C297.416 124.087 296.539 124.829 295.811 125.704C295.49 126.207 295.222 126.742 295.013 127.3C295.013 127.3 292.424 128.692 292.229 130.483C292.203 132.743 292.339 135.001 292.636 137.24" stroke="#263238" stroke-linecap="round" stroke-linejoin="round"/>
<path d="M298.87 123.797C298.87 123.797 302.718 128.763 303.02 130.545" stroke="#263238" stroke-linecap="round" stroke-linejoin="round"/>
<path d="M295.385 127.211C295.385 127.211 299.517 129.916 300.785 133.046" stroke="#263238" stroke-linecap="round" stroke-linejoin="round"/>
<path d="M333.602 143.278L330.366 145.433L329.106 153.706L330.543 152.269L333.416 145.078L333.602 143.278Z" fill="#D53259" stroke="#263238" stroke-linecap="round" stroke-linejoin="round"/>
<path d="M311.63 117.564C311.63 117.564 311.443 122.059 312.348 123.859C313.252 125.659 315.221 129.437 315.221 131.228C315.359 133.785 316.288 136.236 317.881 138.242C319.858 140.902 324.354 145.433 326.517 145.433C328.681 145.433 332.804 141.664 332.804 141.664L333.345 145.078L331.013 152.092C331.013 152.092 338.922 146.16 341.263 143.996C343.604 141.833 346.291 136.442 346.291 136.442L341.689 126.936C342.866 125.237 343.551 123.246 343.666 121.182C343.843 117.759 343.489 118.663 343.125 116.509C342.762 114.354 338.816 108.954 333.602 105.868C328.388 102.783 319.034 104.255 315.434 106.232C311.834 108.209 311.63 117.564 311.63 117.564Z" fill="white" stroke="#263238" stroke-linecap="round" stroke-linejoin="round"/>
<path d="M336.236 148.155L334.835 147.268L336.422 139.572L332.875 141.656L333.416 145.069L331.084 152.083C331.084 152.083 333.611 150.194 336.236 148.155Z" fill="#263238" stroke="#263238" stroke-linecap="round" stroke-linejoin="round"/>
<path d="M317.597 124.223L319.211 126.883C319.211 126.883 319.752 132.638 320.098 133.711C320.443 134.784 322.616 134.793 323.689 134.074" stroke="#263238" stroke-linecap="round" stroke-linejoin="round"/>
<path d="M330.608 135.4C330.608 135.4 325.575 132.992 323 138.914" stroke="#263238" stroke-linecap="round" stroke-linejoin="round"/>
<path d="M316.515 123.682C316.515 123.682 314.538 123.859 313.997 125.119" stroke="#263238" stroke-linecap="round" stroke-linejoin="round"/>
<path d="M321.188 122.237C322.061 121.662 323.069 121.327 324.111 121.265C325.154 121.203 326.195 121.416 327.129 121.882" stroke="#263238" stroke-linecap="round" stroke-linejoin="round"/>
<path d="M325.817 125.917C325.994 126.635 325.817 127.309 325.356 127.415C324.895 127.522 324.425 127.025 324.247 126.298C324.07 125.571 324.247 124.906 324.709 124.8C325.17 124.693 325.666 125.163 325.817 125.917Z" fill="#263238"/>
<path d="M317.57 128.072C317.748 128.79 317.57 129.464 317.109 129.57C316.648 129.676 316.178 129.18 316.001 128.462C315.824 127.743 316.001 127.061 316.462 126.954C316.923 126.848 317.393 127.344 317.57 128.072Z" fill="#263238"/>
<path d="M315.62 100.336C315.62 100.336 313.642 102.854 311.842 102.676C310.042 102.499 306.088 100.336 303.57 103.758C301.051 107.181 301.956 111.127 305.006 112.031C308.056 112.936 307.888 114.541 310.22 115.8C312.552 117.059 315.974 118.141 318.856 114.363C320.042 112.811 321.703 111.689 323.586 111.17C325.469 110.652 327.471 110.764 329.284 111.49C331.944 112.749 330.72 114.541 331.625 116.341C332.28 117.541 333.187 118.584 334.285 119.4C334.285 119.4 334.64 121.554 335.172 121.918C335.704 122.281 336.794 122.805 336.945 121.554C337.096 120.304 336.768 119.577 337.486 118.318C337.719 117.845 338.076 117.444 338.52 117.16C338.964 116.876 339.477 116.718 340.004 116.704C341.077 116.527 343.241 117.777 343.241 117.777C343.808 115.178 344.105 112.528 344.127 109.868C344.127 105.736 342.15 101.24 337.113 98.0036C332.077 94.7671 323.627 96.3809 321.108 97.1169C318.59 97.8528 315.62 100.336 315.62 100.336Z" fill="#8A8A8A" stroke="#263238" stroke-linecap="round" stroke-linejoin="round"/>
<path d="M330.179 109.478C327.676 109.168 325.149 109.106 322.634 109.291C319.211 109.655 317.952 110.55 317.597 111.065C317.243 111.579 317.775 117.538 319.752 119.16C320.918 120.007 322.307 120.493 323.746 120.556C325.186 120.619 326.612 120.257 327.847 119.515C329.917 117.869 331.271 115.486 331.625 112.865C331.802 111.091 331.261 109.478 330.179 109.478Z" fill="#263238" stroke="#263238" stroke-linecap="round" stroke-linejoin="round"/>
<path d="M330.898 109.655L339.348 116.846" stroke="#263238" stroke-linecap="round" stroke-linejoin="round"/>
<path d="M317.597 111.091L314.715 111.81" stroke="#263238" stroke-linecap="round" stroke-linejoin="round"/>
<path d="M315.974 114.523C315.974 114.523 315.62 111.65 312.924 111.65C310.229 111.65 305.547 114.523 305.192 116.686C304.838 118.85 306.806 121.9 309.324 122.982C311.842 124.064 314.902 121.359 315.434 120.278C316.184 118.456 316.372 116.452 315.974 114.523Z" fill="#263238" stroke="#263238" stroke-linecap="round" stroke-linejoin="round"/>
<path d="M346.725 135.005L333.602 147.951L336.652 152.81L349.784 141.124L346.725 135.005Z" fill="#D53259" stroke="#263238" stroke-linecap="round" stroke-linejoin="round"/>
<path d="M262.161 179.553L271.826 195.097L278.972 195.31L269.724 178.711L262.161 179.553Z" fill="#263238" stroke="#263238" stroke-linecap="round" stroke-linejoin="round"/>
<path d="M332.556 189.892C332.556 189.892 308.393 194.938 301.672 195.141C294.951 195.345 290.322 195.567 290.322 195.567C290.322 195.567 286.953 191.781 284.647 189.467C282.342 187.152 277.917 188.003 277.917 188.003C277.917 188.003 272.668 188.207 271.196 188.207C269.724 188.207 265.938 189.263 265.938 190.096C265.938 190.93 266.78 191.364 268.039 191.364H272.242L275.186 192.206C273.203 192.506 271.239 192.927 269.307 193.466C268.465 193.882 269.307 195.771 269.307 195.771L270.141 196.613L271.028 198.298L272.083 199.14C272.083 199.14 272.083 200.187 274.184 201.029C276.286 201.872 283.636 202.288 284.904 202.288H288.265C288.265 202.288 307.772 204.603 312.206 205.232C316.639 205.862 332.6 206.278 336.147 205.649C339.694 205.019 341.405 205.445 342.247 203.973C343.09 202.501 338.461 192.623 337.202 191.151C335.943 189.679 332.556 189.892 332.556 189.892Z" fill="white" stroke="#263238" stroke-linecap="round" stroke-linejoin="round"/>
<path d="M270.141 196.569L276.658 196.152" stroke="#263238" stroke-linecap="round" stroke-linejoin="round"/>
<path d="M272.038 199.096L278.343 199.513" stroke="#263238" stroke-linecap="round" stroke-linejoin="round"/>
<path d="M351.265 156.428C351.265 156.428 346.007 167.574 344.535 172.194C343.063 176.813 342.23 178.081 342.646 179.757C342.774 180.229 342.784 180.725 342.674 181.202C342.564 181.678 342.338 182.12 342.017 182.488C342.017 182.488 340.332 184.173 340.332 184.803C340.332 185.432 338.231 185.015 340.128 189.006C342.026 192.996 345.59 200.772 346.637 202.457C347.142 203.289 347.956 203.887 348.901 204.123C349.845 204.359 350.845 204.213 351.682 203.716C353.571 202.67 358.616 200.169 359.246 196.569C359.875 192.969 359.875 189.422 360.717 187.959C361.56 186.496 367.651 175.342 369.336 169.25C371.021 163.158 371.854 159.372 370.383 155.382C368.911 151.392 366.18 150.762 366.18 150.762" fill="#D53259"/>
<path d="M351.265 156.428C351.265 156.428 346.007 167.574 344.535 172.194C343.063 176.813 342.23 178.081 342.646 179.757C342.774 180.229 342.784 180.725 342.674 181.202C342.564 181.678 342.338 182.12 342.017 182.488C342.017 182.488 340.332 184.173 340.332 184.803C340.332 185.432 338.231 185.015 340.128 189.006C342.026 192.996 345.59 200.772 346.637 202.457C347.142 203.289 347.956 203.887 348.901 204.123C349.845 204.359 350.845 204.213 351.682 203.716C353.571 202.67 358.616 200.169 359.246 196.569C359.875 192.969 359.875 189.422 360.717 187.959C361.56 186.496 367.651 175.342 369.336 169.25C371.021 163.158 371.854 159.372 370.383 155.382C368.911 151.392 366.18 150.762 366.18 150.762" stroke="#263238" stroke-linecap="round" stroke-linejoin="round"/>
<path d="M340.332 184.803C340.332 184.803 349.58 198.671 350.21 200.533C350.84 202.395 350.636 203.681 349.793 204.523C348.951 205.365 342.859 207.671 341.175 207.671C339.49 207.671 338.86 204.94 338.86 203.681C338.86 202.421 330.667 189.6 330.667 189.6C331.025 188.558 331.52 187.568 332.139 186.656C332.769 186.062 340.332 184.803 340.332 184.803Z" fill="#D53259" stroke="#263238" stroke-linecap="round" stroke-linejoin="round"/>
<path d="M350.973 192.233C351.823 192.872 352.5 193.713 352.941 194.681" stroke="#263238" stroke-linecap="round" stroke-linejoin="round"/>
<path d="M342.017 185.849C342.017 185.849 345.954 188.27 349.11 190.708" stroke="#263238" stroke-linecap="round" stroke-linejoin="round"/>
<path d="M343.702 185.016C343.702 185.016 351.895 186.275 352.737 188.163" stroke="#263238" stroke-linecap="round" stroke-linejoin="round"/>
</svg>
