<svg width="152" height="150" viewBox="0 0 152 150" fill="none" xmlns="http://www.w3.org/2000/svg">
<path d="M80.1558 73.4026C80.1558 76.3672 77.7525 78.7706 74.7879 78.7706C71.8232 78.7706 69.4199 76.3672 69.4199 73.4026C69.4199 70.438 71.8232 68.0346 74.7879 68.0346C77.7525 68.0346 80.1558 70.438 80.1558 73.4026Z" fill="#BB002D"/>
<path d="M94.5624 53.2402C94.853 52.8538 95.1583 52.4792 95.4776 52.117C95.2199 52.1083 94.9611 52.1039 94.7013 52.1039C94.5311 52.1039 94.3614 52.1058 94.1922 52.1095C88.5542 52.2347 83.4275 54.4326 79.544 57.9714C76.6141 56.6492 73.3627 55.9134 69.9394 55.9134C57.0876 55.9134 46.6581 66.2844 46.5634 79.1139C46.563 79.1725 46.5628 79.2313 46.5628 79.29C46.5628 80.1238 46.6064 80.9473 46.6915 81.7585C46.7312 82.1367 46.7799 82.5121 46.8374 82.8847C47.0051 83.9708 47.2474 85.0322 47.5591 86.0635C47.9542 87.3705 48.4605 88.6291 49.0672 89.8283C52.1977 99.975 48.588 111.399 39.3919 117.762C37.2254 119.261 34.9053 120.371 32.5145 121.107C31.8223 121.32 31.1242 121.501 30.4222 121.652C26.4866 122.497 22.4281 122.368 18.6008 121.33C17.5156 121.035 16.4489 120.667 15.4089 120.228C14.833 119.985 14.2652 119.72 13.707 119.433C5.10985 107.125 0.0669866 92.1516 0.0669866 76C0.0669866 34.0634 34.0634 0.0669866 76 0.0669866C117.937 0.0669866 151.933 34.0634 151.933 76C151.933 111.386 127.727 141.119 94.9702 149.544C107.078 141.991 115.134 128.551 115.134 113.229C115.134 105.387 113.023 98.037 109.339 91.7175C109.145 91.3853 108.947 91.056 108.745 90.7296C106.901 87.7553 104.703 85.0239 102.21 82.5942C101.235 81.6444 100.215 80.7406 99.1536 79.8866C98.5384 79.3917 97.9093 78.9134 97.2668 78.4526C93.3304 75.0457 90.8401 70.0128 90.8401 64.3983C90.8401 60.211 92.2253 56.3472 94.5624 53.2402Z" fill="#BB002D"/>
</svg>
